<svg width="1440" height="32" viewBox="0 0 1440 32" fill="none" xmlns="http://www.w3.org/2000/svg">
<g clip-path="url(#clip0_1625_2164)">
<g clip-path="url(#clip1_1625_2164)">
<path d="M68.3376 7.39728C66.6418 7.38193 64.9798 7.87125 63.5628 8.80302C62.1459 9.73478 61.038 11.0669 60.3802 12.63C59.7224 14.193 59.5442 15.9164 59.8685 17.581C60.1927 19.2456 61.0046 20.7761 62.201 21.978C63.3975 23.1799 64.9243 23.9988 66.5874 24.3306C68.2504 24.6624 69.9746 24.4922 71.5407 23.8415C73.1067 23.1908 74.4439 22.089 75.3821 20.6763C76.3203 19.2636 76.8172 17.6039 76.8096 15.908C76.8121 14.7929 76.595 13.6882 76.1706 12.657C75.7463 11.6258 75.1229 10.6883 74.3362 9.89803C73.5495 9.10773 72.6149 8.48013 71.5856 8.05105C70.5564 7.62197 69.4527 7.39982 68.3376 7.39728ZM68.4054 21.0009C67.7506 21.0093 67.1007 20.8869 66.4938 20.6409C65.8869 20.3948 65.3353 20.03 64.8713 19.5679C64.2914 18.9944 63.8619 18.2867 63.6209 17.5075C63.38 16.7283 63.335 15.9016 63.49 15.1009C63.645 14.3001 63.9952 13.55 64.5095 12.917C65.0238 12.2839 65.6863 11.7876 66.4384 11.4719C67.1905 11.1563 68.0088 11.0311 68.8208 11.1074C69.6329 11.1837 70.4136 11.4592 71.0936 11.9095C71.7737 12.3597 72.3322 12.9708 72.7196 13.6886C73.1069 14.4063 73.3112 15.2086 73.3143 16.0242C73.2852 17.3267 72.7581 18.5685 71.8414 19.4942C70.9247 20.4199 69.6881 20.9591 68.386 21.0009H68.4054ZM87.1406 11.4251C86.5655 11.4327 85.9975 11.5538 85.4694 11.7815C84.9412 12.0092 84.4632 12.3389 84.0628 12.7519C83.6625 13.1649 83.3476 13.6528 83.1364 14.1878C82.9252 14.7228 82.8217 15.2942 82.832 15.8693V23.9927H79.143L79.0946 7.87171H82.7836V10.3988C83.3122 9.62653 84.0177 8.99169 84.8412 8.54709C85.6647 8.10248 86.5825 7.86098 87.5182 7.84266H88.593V11.4251H87.1406ZM50.3479 8.01694L53.1073 19.0741L56.012 7.9879H59.701L55.1406 24.1573H51.5582L48.6535 12.8871L45.8553 24.2057H42.2631L37.422 8.0944H41.0141L44.248 19.1225L46.8332 8.03631L50.3479 8.01694ZM99.4081 15.1625C100.703 14.4057 101.777 13.3227 102.523 12.0213C103.269 10.7199 103.66 9.24577 103.659 7.74584H99.9697C99.9852 9.04705 99.4844 10.3014 98.5771 11.2342C97.6697 12.167 96.4297 12.7021 95.1285 12.7225H94.596L94.5573 0H90.8683L91.0135 23.954H94.7025V16.3631H95.1285C95.3239 16.3417 95.5212 16.3802 95.6941 16.4736C95.8671 16.567 96.0075 16.7108 96.0967 16.8859L101.296 23.925H105.614L99.4081 15.1625Z" fill="#F3F9F5"/>
<path d="M28.9017 7.59092C24.8932 7.59092 21.853 10.2536 20.7104 14.475C18.8846 11.6323 17.4546 8.5541 16.4599 5.32526H12.2481V16.4986C12.2481 17.5618 11.8258 18.5813 11.0741 19.3331C10.3223 20.0848 9.30275 20.5071 8.23964 20.5071C7.17653 20.5071 6.15695 20.0848 5.40522 19.3331C4.65349 18.5813 4.23117 17.5618 4.23117 16.4986V5.32526L0 5.40272L0.0484115 16.5761C0.0445884 17.6644 0.255643 18.7427 0.669471 19.7493C1.0833 20.7559 1.69176 21.6708 2.45996 22.4417C3.22816 23.2126 4.14098 23.8243 5.14608 24.2416C6.15119 24.659 7.22879 24.8738 8.3171 24.8738C9.40503 24.8587 10.4793 24.6288 11.4781 24.1972C12.4769 23.7657 13.3805 23.1411 14.1372 22.3592C14.8939 21.5774 15.4886 20.6537 15.8872 19.6413C16.2858 18.6289 16.4804 17.5478 16.4599 16.4599V14.5234C17.3455 16.2889 18.3788 17.9764 19.5486 19.5679L16.9924 32L21.3011 31.9516L23.1601 22.9761C24.8951 24.0805 26.9128 24.6589 28.9694 24.6415C31.186 24.5575 33.2831 23.6153 34.8179 22.014C36.3527 20.4126 37.2051 18.2774 37.195 16.0594C37.185 13.8413 36.3133 11.7139 34.764 10.1266C33.2147 8.53921 31.1092 7.6161 28.892 7.55219L28.9017 7.59092ZM28.9598 20.3328C27.205 20.2867 25.5222 19.6253 24.2058 18.4641L24.6221 16.7794V16.6826C24.9319 14.8914 25.8614 11.8415 29.0275 11.8415C30.1447 11.8388 31.2176 12.2782 32.0121 13.0636C32.8065 13.849 33.2582 14.9168 33.2684 16.0339C33.2207 17.1604 32.7512 18.2278 31.953 19.0242C31.1548 19.8205 30.0864 20.2877 28.9598 20.3328Z" fill="#F3F9F5"/>
</g>
<g clip-path="url(#clip2_1625_2164)">
<path fill-rule="evenodd" clip-rule="evenodd" d="M184.661 9.37931C184.659 8.21965 184.198 7.10794 183.378 6.28819C182.557 5.46844 181.445 5.00763 180.286 5.0069H174.517V13.8097H180.286C180.865 13.8108 181.439 13.6966 181.974 13.4737C182.509 13.2508 182.994 12.9236 183.402 12.5112C183.809 12.0989 184.13 11.6096 184.346 11.0719C184.562 10.5342 184.669 9.95879 184.661 9.37931ZM180.286 0C182.775 3.71001e-08 185.163 0.989047 186.924 2.74956C188.684 4.51008 189.673 6.89784 189.673 9.38759C189.673 11.8773 188.684 14.2651 186.924 16.0256C185.163 17.7861 182.775 18.7752 180.286 18.7752H174.517V31.6662H169.527V0H180.286ZM206.057 18.4414C205.734 17.1949 205.004 16.0916 203.984 15.3058C202.964 14.52 201.711 14.0964 200.424 14.1021C197.665 14.1021 195.403 15.8621 194.782 18.4414H206.057ZM200.473 9.68C206.928 9.68 211.436 14.8193 211.436 22.1738V22.571H194.782C195.668 25.3297 198.06 27.1614 200.876 27.1614C203.811 27.1614 206.026 25.3131 206.84 24.5186L207.149 24.2207L210.148 27.8786L209.888 28.1324C207.362 30.6152 204.148 31.9945 200.835 31.9945C194.49 31.9945 189.538 26.9655 189.538 20.5435C189.527 19.1087 189.802 17.6862 190.347 16.3592C190.893 15.0322 191.698 13.8274 192.715 12.8156C193.732 11.8038 194.941 11.0052 196.271 10.4668C197.601 9.92835 199.025 9.66086 200.46 9.68H200.473ZM219.591 3.37931V10H226.413V14.4772H219.577V23.8566C219.572 24.2271 219.641 24.5948 219.781 24.9381C219.92 25.2815 220.126 25.5935 220.388 25.8559C220.65 26.1183 220.961 26.3258 221.304 26.4661C221.647 26.6064 222.015 26.6768 222.385 26.6731H226.316V31.68H222.302C217.613 31.68 214.578 28.5931 214.578 23.8152V3.40138L219.591 3.37931ZM245.593 20.7972C245.582 19.5858 245.212 18.4048 244.531 17.4031C243.849 16.4014 242.887 15.6237 241.764 15.168C240.642 14.7123 239.41 14.599 238.223 14.8423C237.036 15.0857 235.948 15.6748 235.095 16.5354C234.243 17.3961 233.664 18.4898 233.431 19.6789C233.199 20.8679 233.324 22.0991 233.79 23.2172C234.257 24.3354 235.043 25.2906 236.051 25.9626C237.06 26.6345 238.244 26.9931 239.455 26.9931C240.265 26.9891 241.065 26.8256 241.811 26.512C242.557 26.1983 243.233 25.7407 243.802 25.1652C244.371 24.5897 244.821 23.9077 245.126 23.1582C245.431 22.4087 245.585 21.6064 245.58 20.7972H245.593ZM246.145 12.1379V10.0138H250.515V31.6662H246.162V29.5421C244.271 31.1384 241.874 32.0097 239.4 32C237.92 32.0233 236.45 31.7518 235.075 31.2014C233.701 30.651 232.45 29.8327 231.395 28.7941C230.34 27.7555 229.502 26.5173 228.93 25.1518C228.358 23.7862 228.063 22.3205 228.063 20.84C228.063 19.3595 228.358 17.8938 228.93 16.5282C229.502 15.1627 230.34 13.9245 231.395 12.8859C232.45 11.8473 233.701 11.029 235.075 10.4786C236.45 9.92819 237.92 9.65673 239.4 9.68C241.858 9.68977 244.236 10.5593 246.12 12.1379H246.145ZM255.044 31.6662V1.66897H260.01V31.6662H255.044Z" fill="#F3F9F5"/>
</g>
<g clip-path="url(#clip3_1625_2164)">
<path d="M350.698 31.9999L410.488 26.8178H345.516L350.698 31.9999Z" fill="#F3F9F5"/>
<path d="M424.35 5.44123C423.123 5.46988 421.931 5.85228 420.917 6.54245V5.8299H416.9V23.4493H420.917V13.1497C420.888 12.6985 420.953 12.2462 421.106 11.8209C421.259 11.3955 421.498 11.0061 421.808 10.6765C422.117 10.347 422.491 10.0843 422.906 9.90479C423.321 9.72525 423.768 9.63263 424.22 9.63263C424.672 9.63263 425.12 9.72525 425.535 9.90479C425.95 10.0843 426.323 10.347 426.633 10.6765C426.942 11.0061 427.181 11.3955 427.334 11.8209C427.488 12.2462 427.552 12.6985 427.524 13.1497V23.5141H431.54V13.1497C431.54 8.87443 428.625 5.44123 424.35 5.44123Z" fill="#F3F9F5"/>
<path d="M407.637 5.37655C402.973 5.37655 399.67 9.45752 399.67 14.6397C399.67 20.081 403.815 23.9029 408.026 23.9029C410.163 23.9029 412.819 23.1903 415.087 19.9515L411.524 17.8786C408.803 21.8948 404.204 19.8867 403.686 15.8057H415.216C416.253 9.58708 412.172 5.37655 407.637 5.37655ZM403.945 12.3725C404.787 8.29153 410.358 8.03242 411.135 12.3725H403.945Z" fill="#F3F9F5"/>
<path d="M391.119 17.6194C391.083 18.4269 391.211 19.2332 391.493 19.9904C391.776 20.7476 392.208 21.44 392.765 22.0264C393.321 22.6129 393.989 23.0812 394.731 23.4036C395.472 23.726 396.27 23.8958 397.078 23.9028C398.444 23.855 399.777 23.4771 400.965 22.8016L398.374 19.3036C397.976 19.5875 397.502 19.7454 397.014 19.7571C396.747 19.7495 396.484 19.687 396.243 19.5735C396.001 19.46 395.785 19.2979 395.609 19.0973C395.433 18.8967 395.3 18.662 395.218 18.4077C395.137 18.1534 395.108 17.8851 395.135 17.6194V10.0405H398.568V5.82993H395.135V1.42507H391.119V5.82993H388.981V10.0405H391.119V17.6194Z" fill="#F3F9F5"/>
<path d="M380.172 23.9028C381.398 23.8742 382.591 23.4918 383.605 22.8016V23.4494H387.621V5.82996H383.605V16.1943C383.633 16.6456 383.569 17.0978 383.416 17.5232C383.262 17.9486 383.024 18.338 382.714 18.6676C382.404 18.9971 382.031 19.2598 381.616 19.4393C381.201 19.6188 380.753 19.7114 380.301 19.7114C379.849 19.7114 379.402 19.6188 378.987 19.4393C378.572 19.2598 378.198 18.9971 377.889 18.6676C377.579 18.338 377.34 17.9486 377.187 17.5232C377.034 17.0978 376.969 16.6456 376.998 16.1943V5.82996H372.981V16.1943C372.981 20.4696 375.896 23.9028 380.172 23.9028Z" fill="#F3F9F5"/>
<path d="M361.905 16.2591L367.864 23.5142H373.435L365.467 14.1215L372.334 5.82996H366.763L361.905 11.9838V0H357.824V23.5142H361.905V16.2591Z" fill="#F3F9F5"/>
<path d="M351.54 22.6721V23.4494H355.556V5.82999H351.54V6.60732C350.446 5.81751 349.133 5.38742 347.783 5.37655C343.249 5.37655 339.751 9.5223 339.751 14.6397C339.751 19.7571 343.184 23.9029 347.783 23.9029C349.134 23.9021 350.45 23.471 351.54 22.6721ZM343.831 14.7045C343.831 11.9191 345.451 9.71663 347.718 9.71663C349.985 9.71663 351.54 11.9191 351.54 14.7045C351.54 17.4899 349.985 19.6923 347.718 19.6923C345.451 19.6923 343.831 17.4899 343.831 14.7045Z" fill="#F3F9F5"/>
<path d="M338.455 9.00402C338.453 6.99448 337.654 5.06774 336.233 3.64679C334.812 2.22583 332.886 1.42679 330.876 1.42507H324.01V23.4494H328.22V16.6477H331.135L336.253 23.4494H341.5L335.281 15.2226C336.273 14.5199 337.081 13.5871 337.633 12.504C338.186 11.4209 338.468 10.2199 338.455 9.00402ZM330.941 12.502H328.22V5.6356H330.941C331.851 5.6356 332.725 5.99731 333.369 6.64116C334.012 7.28501 334.374 8.15825 334.374 9.0688C334.374 9.97934 334.012 10.8526 333.369 11.4964C332.725 12.1403 331.851 12.502 330.941 12.502Z" fill="#F3F9F5"/>
</g>
<g clip-path="url(#clip4_1625_2164)">
<path d="M513.204 3.71221C513.204 1.15221 510.772 0.512207 508.852 0.512207V0.896207C510.004 0.896207 510.9 1.28021 510.9 2.17621C510.9 2.68821 510.516 3.45621 509.364 3.45621C508.468 3.45621 506.548 2.94421 505.14 2.43221C503.476 1.79221 501.94 1.28021 500.66 1.28021C498.1 1.28021 496.308 3.20021 496.308 5.37621C496.308 7.29621 497.716 7.9362 498.228 8.1922L498.356 7.9362C498.1 7.6802 497.716 7.42421 497.716 6.65621C497.716 6.14421 498.228 5.24821 499.508 5.24821C500.66 5.24821 502.196 5.76021 504.244 6.40021C506.036 6.91221 507.956 7.29621 508.98 7.42421V11.3922L507.06 13.0562V13.1842L508.98 14.8482V20.3522C507.956 20.9922 506.804 21.1202 505.78 21.1202C503.86 21.1202 502.196 20.6082 500.788 19.0722L506.036 16.5122V7.6802L499.636 10.4962C500.148 8.83221 501.556 7.6802 502.964 6.91221L502.836 6.52821C498.996 7.55221 495.54 11.1362 495.54 15.4882C495.54 20.6082 499.764 24.4482 504.5 24.4482C509.62 24.4482 512.948 20.3522 512.948 16.1282H512.692C511.924 17.7922 510.772 19.3282 509.364 20.0962V14.8482L511.412 13.1842V13.0562L509.364 11.3922V7.42421C511.284 7.42421 513.204 6.14421 513.204 3.71221ZM502.068 17.7922L500.532 18.5602C499.636 17.4082 499.124 15.8722 499.124 13.6962C499.124 12.8002 499.124 11.7762 499.38 11.0082L502.068 9.8562V17.7922ZM515.636 20.7362L513.972 22.0162L514.228 22.2722L514.996 21.6322L517.812 24.1922L521.652 21.6322L521.524 21.3762L520.5 22.0162L519.22 20.7362V12.0322L520.244 11.2642L522.42 13.0562V20.8642C522.42 25.7282 521.396 26.4962 519.22 27.2642V27.6482C522.804 27.7762 526.132 26.6242 526.132 20.3522V11.9042L527.284 11.0082L527.028 10.7522L526.004 11.5202L522.804 8.8322L519.22 11.5202V1.02421H518.964L514.484 4.09621V4.35221C514.996 4.60821 515.764 4.86421 515.764 6.27221L515.636 20.7362ZM539.06 19.3282L535.86 21.7602L532.66 19.2002V17.6642L538.676 13.5682V13.4402L535.604 8.8322L528.948 12.4162V20.8642L527.668 21.8882L527.924 22.1442L529.076 21.2482L533.428 24.4482L539.188 19.8402L539.06 19.3282ZM532.66 17.1522V10.8802L532.916 10.7522L535.732 15.2322L532.66 17.1522ZM563.508 2.56021C563.508 2.17621 563.38 1.79221 563.252 1.40821H562.996C562.612 2.43221 562.1 2.94421 560.82 2.94421C559.668 2.94421 558.9 2.30421 558.388 1.79221L554.676 6.01621L554.932 6.27221L556.212 5.12021C556.98 5.76021 557.62 6.27221 559.412 6.40021V17.0242L551.86 4.09621C551.22 3.07221 550.324 1.66421 548.532 1.66421C546.484 1.66421 544.692 3.45621 544.948 6.27221H545.332C545.46 5.50421 545.844 4.60821 546.74 4.60821C547.38 4.60821 548.02 5.24821 548.404 5.88821V10.1122C546.1 10.1122 544.564 11.1362 544.564 13.0562C544.564 14.0802 545.076 15.6162 546.612 16.0002V15.7442C546.356 15.4882 546.228 15.2322 546.228 14.8482C546.228 14.2082 546.74 13.6962 547.636 13.6962H548.276V19.0722C545.588 19.0722 543.412 20.6082 543.412 23.1682C543.412 25.6002 545.46 26.7522 547.764 26.6242V26.3682C546.356 26.2402 545.716 25.6002 545.716 24.7042C545.716 23.5522 546.484 23.0402 547.508 23.0402C548.532 23.0402 549.428 23.6802 550.068 24.4482L553.78 20.3522L553.524 20.0962L552.628 21.1202C551.22 19.8402 550.452 19.4562 548.788 19.2002V6.40021L559.028 24.3202H559.796V6.40021C561.716 6.27221 563.508 4.73621 563.508 2.56021ZM572.852 19.3282L569.652 21.7602L566.452 19.2002V17.6642L572.468 13.5682V13.4402L569.396 8.8322L562.74 12.4162V20.8642L561.46 21.8882L561.716 22.1442L562.868 21.2482L567.22 24.4482L572.98 19.8402L572.852 19.3282ZM566.452 17.1522V10.8802L566.708 10.7522L569.524 15.2322L566.452 17.1522ZM593.716 10.2402L592.82 10.8802L590.388 8.8322L587.572 11.3922L588.724 12.5442V22.1442L585.652 20.2242V12.2882L586.676 11.6482L583.732 8.8322L580.916 11.3922L582.068 12.5442V21.7602L581.684 22.0162L578.996 20.0962V12.4162C578.996 10.6242 578.1 10.1122 577.076 9.4722C576.18 8.8322 575.668 8.4482 575.668 7.55221C575.668 6.7842 576.436 6.40021 576.82 6.14421V5.88821C575.796 5.88821 573.108 6.91221 573.108 9.3442C573.108 10.6242 573.748 11.1362 574.388 11.7762C575.028 12.4162 575.668 12.9282 575.668 14.0802V21.5042L574.26 22.5282L574.516 22.7842L575.796 21.7602L578.74 24.3202L581.94 22.1442L585.524 24.3202L592.308 20.3522V11.7762L593.972 10.4962L593.716 10.2402ZM617.524 3.20021L616.244 4.35221L613.428 1.79221L609.204 4.86421V2.04821H608.82L608.948 22.7842C608.564 22.7842 607.412 22.5282 606.516 22.2722L606.26 4.99221C606.26 3.71221 605.364 1.92021 603.06 1.92021C600.756 1.92021 599.22 3.71221 599.22 5.50421H599.604C599.732 4.73621 600.116 4.09621 600.884 4.09621C601.652 4.09621 602.292 4.60821 602.292 6.27221V11.2642C599.988 11.3922 598.58 12.6722 598.58 14.3362C598.58 15.3602 599.092 16.8962 600.628 16.8962V16.6402C600.116 16.3842 599.988 16.0002 599.988 15.7442C599.988 14.9762 600.628 14.7202 601.652 14.7202H602.164V22.6562C600.244 23.2962 599.476 24.7042 599.476 26.2402C599.476 28.4162 601.14 29.9522 603.7 29.9522C605.492 29.9522 607.028 29.6962 608.564 29.3122C609.844 29.0562 611.508 28.6722 612.276 28.6722C613.3 28.6722 613.684 29.1842 613.684 29.8242C613.684 30.7202 613.3 31.1042 612.788 31.2322V31.4882C614.836 31.1042 616.116 29.8242 616.116 27.9042C616.116 25.9842 614.196 24.8322 612.148 24.8322C611.124 24.8322 608.948 25.2162 607.412 25.4722C605.62 25.8562 603.828 26.1122 603.316 26.1122C602.42 26.1122 601.396 25.7282 601.396 24.4482C601.396 23.4242 602.292 22.5282 604.468 22.5282C605.62 22.5282 607.028 22.6562 608.436 23.0402C609.972 23.4242 611.38 23.8082 612.66 23.8082C614.58 23.8082 616.244 23.1682 616.244 20.4802V4.73621L617.78 3.45621L617.524 3.20021ZM612.276 11.0082C611.892 11.3922 611.38 11.7762 610.74 11.7762C610.1 11.7762 609.46 11.3922 609.204 11.0082V5.37621L610.484 4.48021L612.276 6.14421V11.0082ZM612.276 14.8482C612.02 14.5922 611.38 14.2082 610.74 14.2082C610.1 14.2082 609.46 14.5922 609.204 14.8482V11.5202C609.46 11.7762 610.1 12.1602 610.74 12.1602C611.38 12.1602 612.02 11.7762 612.276 11.5202V14.8482ZM612.276 20.8642C612.276 21.8882 611.636 22.9122 610.228 22.9122H609.204V15.3602C609.46 15.1042 610.1 14.7202 610.74 14.7202C611.38 14.7202 611.892 15.1042 612.276 15.3602V20.8642ZM629.812 11.7762L625.716 8.8322L619.444 12.4162V20.7362L618.164 21.7602L618.292 22.0162L619.316 21.2482L623.412 24.3202L629.812 20.4802V11.7762ZM622.9 19.8402V10.6242L626.1 12.9282V22.0162L622.9 19.8402ZM641.972 9.08821H641.716C641.332 9.34421 640.948 9.60021 640.564 9.60021C640.052 9.60021 639.412 9.3442 639.156 8.9602H638.9L636.724 11.3922L634.548 8.9602L630.708 11.5202L630.836 11.7762L631.86 11.1362L633.14 12.5442V20.6082L631.476 21.8882L631.732 22.1442L632.5 21.5042L635.572 24.0642L639.54 21.3762L639.412 21.1202L638.26 21.7602L636.724 20.4802V11.5202C637.364 12.1602 638.132 12.8002 639.028 12.8002C640.82 12.9282 641.844 11.1362 641.972 9.08821ZM657.332 21.3762L652.98 24.3202L647.092 15.3602L651.316 8.8322H651.572C652.084 9.3442 652.852 9.8562 653.748 9.8562C654.644 9.8562 655.284 9.3442 655.668 8.8322H655.924C655.796 11.3922 654.004 12.9282 652.724 12.9282C651.444 12.9282 650.804 12.2882 650.036 11.9042L649.652 12.5442L656.052 22.0162L657.332 21.2482V21.3762ZM643.252 20.7362L641.588 22.0162L641.844 22.2722L642.612 21.6322L645.428 24.1922L649.268 21.6322L649.012 21.3762L647.988 22.0162L646.708 20.7362V1.02421H646.58L641.972 4.09621V4.35221C642.484 4.60821 643.252 4.73621 643.252 6.27221V20.7362ZM678.58 3.71221C678.58 1.15221 676.148 0.512207 674.228 0.512207V0.896207C675.38 0.896207 676.276 1.28021 676.276 2.17621C676.276 2.68821 675.892 3.45621 674.74 3.45621C673.844 3.45621 671.924 2.94421 670.516 2.43221C668.852 1.92021 667.316 1.40821 666.036 1.40821C663.476 1.40821 661.684 3.32821 661.684 5.50421C661.684 7.4242 663.092 8.06421 663.604 8.32021L663.732 8.0642C663.348 7.80821 662.964 7.55221 662.964 6.78421C662.964 6.27221 663.476 5.37621 664.756 5.37621C665.908 5.37621 667.444 5.88821 669.492 6.52821C671.284 7.04021 673.204 7.4242 674.228 7.55221V11.5202L672.308 13.1842V13.3122L674.228 14.9762V20.4802C673.204 21.1202 672.052 21.2482 671.028 21.2482C669.108 21.2482 667.444 20.7362 666.036 19.2002L671.284 16.6402V7.6802L664.884 10.4962C665.524 8.83221 666.932 7.6802 668.212 6.78421L668.084 6.52821C664.244 7.55221 660.788 11.0082 660.788 15.3602C660.788 20.4802 665.012 24.3202 669.748 24.3202C674.868 24.3202 678.196 20.2242 678.196 16.0002H677.94C677.172 17.6642 676.02 19.2002 674.612 19.9682V14.7202L676.66 13.0562V12.9282L674.74 11.2642V7.42421C676.66 7.42421 678.58 6.14421 678.58 3.71221ZM667.444 17.7922L665.908 18.5602C665.012 17.4082 664.5 15.8722 664.5 13.6962C664.5 12.8002 664.628 11.7762 664.884 11.0082L667.572 9.8562L667.444 17.7922ZM683.06 2.43221H682.932L680.372 4.60821V4.73621L682.548 7.1682H682.804L685.364 4.99221V4.86421L683.06 2.43221ZM686.9 21.3762L685.876 22.0162L684.596 20.7362V11.9042L685.876 11.0082L685.62 10.7522L684.724 11.5202L682.42 8.8322L678.708 11.3922L678.964 11.7762L679.86 11.1362L681.012 12.5442V20.8642L679.348 22.1442L679.476 22.4002L680.372 21.7602L683.188 24.3202L687.028 21.7602L686.9 21.3762ZM708.276 21.2482L707.38 21.8882L705.972 20.6082V11.9042L707.252 10.8802L706.996 10.6242L705.972 11.5202L703.028 8.8322L699.188 11.5202L696.244 8.8322L692.66 11.5202L690.356 8.8322L686.644 11.3922L686.772 11.7762L687.668 11.1362L688.948 12.5442V20.8642L687.924 21.8882L690.868 24.3202L693.684 21.7602L692.532 20.6082V11.9042L693.684 11.1362L695.604 12.9282V20.6082L694.58 21.6322L697.524 24.0642L700.34 21.5042L699.188 20.3522V11.9042L700.212 11.2642L702.26 13.0562V20.7362L701.364 21.6322L704.308 24.3202L708.276 21.6322V21.2482ZM719.412 19.3282L716.212 21.7602L713.012 19.2002V17.6642L719.028 13.5682V13.4402L715.956 8.8322L709.3 12.4162V21.1202L713.78 24.3202L719.54 19.7122L719.412 19.3282ZM713.012 17.1522V10.8802L713.268 10.7522L716.084 15.2322L713.012 17.1522ZM731.06 16.0002L728.628 14.0802C730.292 12.6722 730.932 10.7522 730.932 9.4722V8.7042H730.676C730.42 9.3442 729.908 9.9842 728.884 9.9842C727.86 9.9842 727.22 9.4722 726.58 8.7042L720.82 11.9042V16.5122L722.996 18.1762C720.82 20.0962 720.436 21.3762 720.436 22.4002C720.436 23.6802 721.076 24.5762 722.1 24.9602L722.228 24.7042C721.972 24.4482 721.716 24.3202 721.716 23.6802C721.716 23.2962 722.228 22.6562 723.252 22.6562C724.532 22.6562 725.3 23.5522 725.684 23.9362L731.188 20.6082V16.0002H731.06ZM729.652 12.1602C728.756 13.6962 726.836 15.2322 725.684 16.0002L724.276 14.8482V10.3682C724.788 11.6482 726.196 12.6722 727.604 12.6722C728.5 12.6722 729.012 12.5442 729.652 12.1602ZM727.476 22.4002C726.836 20.9922 725.3 19.9682 723.764 19.9682C723.38 19.9682 722.356 19.9682 721.332 20.6082C721.972 19.5842 723.636 17.7922 725.812 16.5122L727.348 17.7922L727.476 22.4002Z" fill="#F3F9F5"/>
</g>
<g clip-path="url(#clip5_1625_2164)">
<path fill-rule="evenodd" clip-rule="evenodd" d="M898.038 4.73144C898.149 5.16687 897.661 5.58515 897.407 5.90515C895.278 8.57144 892.917 11.7257 890.08 13.7509C890.285 14.8114 890.176 16.2194 889.806 16.9966C890.549 17.9429 891.337 18.8389 891.797 20.064C891.192 23.264 889.789 25.7463 887.545 27.3691C885.355 28.9509 882.397 29.5749 879.04 30.3451C872.55 31.8366 861.871 33.3074 857.056 29.4423C851.842 32.4914 841.306 32.8937 836.43 29.2617C832.963 33.6354 819.289 33.2514 821.323 24.5726C818.787 26.4869 815.038 29.1257 811.461 30.616C807.312 32.3417 799.456 32.1474 800.241 26.2869C800.336 25.5886 800.632 25.1943 800.966 24.5726C799.752 22.4617 798.985 20.9966 798.251 19.1611C797.549 17.4011 796.477 15.3977 796.351 12.9394C796.088 7.70972 800.177 4.3943 804.225 2.83658C806.29 2.0423 807.968 0.891437 810.014 0.314294C813.071 -0.554277 815.691 1.12229 815.894 3.92115C819.448 2.86972 823.776 1.70972 828.47 2.38858C832.207 -0.508564 839.505 1.28115 844.302 2.65715C845.386 2.96915 846.846 3.77487 847.649 3.74058C848.329 3.71315 849.558 2.79315 850.271 2.47772C853.637 0.989723 858.037 -0.594277 862.847 0.222866C863.758 0.376009 864.591 0.857151 865.56 0.942866C866.218 1.00344 867.023 0.797723 867.731 0.76458C878.974 0.217152 888.333 3.22515 898.038 4.73144ZM866.557 4.37258C865.408 4.50972 864.593 5.7623 863.842 6.17601C863.897 6.1703 863.949 6.16115 863.931 6.08458C864.069 5.46972 864.331 4.97944 864.384 4.2823C858.363 2.16801 852.504 5.2583 848.192 7.6183C844.743 9.50401 841.666 11.7211 839.506 13.9303C840.287 12.6046 841.115 11.2926 842.04 10.0537C842.977 8.79544 844.021 7.65715 844.846 6.53715C843.042 6.0663 841.234 5.56915 839.415 5.18287C836.83 4.6343 833.234 3.72572 831.093 4.91315C830.473 5.25601 829.966 6.10058 829.374 6.17601C828.883 6.23887 828.077 5.8823 827.473 5.81601C825.263 5.5703 823.229 5.77487 821.231 6.17601C819.36 6.54972 815.405 7.21258 814.897 8.97029C814.573 10.0994 815.297 11.1932 815.169 12.3097C815.046 13.4069 813.987 14.8606 813.45 15.736C812.793 16.8103 812.125 17.7611 811.007 18.2606C810.33 14.9006 811.066 11.912 811.641 9.06287C811.995 7.3063 812.71 5.50858 812.095 3.74058C810.369 3.50172 808.917 4.86287 807.208 5.54287C803.999 6.82287 800.425 7.98972 799.971 11.6766C799.715 13.7531 800.498 15.0731 801.057 16.5474C802.162 19.4973 803.653 22.2873 805.491 24.8446C805.011 25.7223 803.883 25.9509 803.77 27.1874C804.281 27.9074 805.344 28.0034 806.394 28C809.43 27.9931 811.919 26.4709 814.174 25.2046C819.083 22.4503 822.382 18.2114 825.846 14.2023C826.454 13.4971 826.954 12.648 827.746 12.2183C828.523 15.7806 827.011 17.6857 825.935 20.6046C825.52 21.7291 824.211 25.2491 824.849 26.9166C825.549 28.7509 831.504 28.8309 833.082 27.6411C833.878 27.0411 834.194 25.6869 834.622 24.8446C835.167 23.7611 835.639 22.8263 836.069 21.8686C836.093 25.8194 839.037 26.9794 842.219 27.8206C848.985 29.6034 855.808 26.4183 859.499 24.2149C859.038 27.1417 860.178 27.4354 862.486 27.912C868.451 29.1394 874.459 27.7234 879.312 26.5577C883.761 25.4903 887.338 24.736 887.998 20.3337C887.286 19.72 885.506 19.7966 884.289 19.9749C880.701 20.4983 877.226 22.3063 872.438 21.9577C871.563 21.8949 869.677 21.5909 869.541 21.0571C869.33 20.2251 870.825 19.6423 872.078 19.4343C875.666 18.8286 880.855 19.44 883.745 18.3486C885.133 17.8274 886.807 16.3211 886.639 14.6526C886.529 13.5257 885.054 12.936 883.654 12.8503C879.695 12.6034 876.865 14.9074 872.711 14.112C873.23 13.4583 873.323 12.3806 873.975 11.8583C877.014 11.7943 879.966 12.3954 882.841 12.2183C886.839 11.9691 889.093 10.2903 890.984 8.06972C891.186 7.82972 891.694 7.57258 891.527 7.16915C884.583 6.11544 875.118 3.32572 866.557 4.37258ZM852.805 11.3143C852.359 13.3371 851.427 15.6526 850.905 17.8971C853.781 17.9383 856.814 17.3531 859.77 17.176C860.17 16.6434 860.367 15.9074 860.585 15.192C861.178 16.0286 861.595 17.5943 861.038 18.7989C856.547 18.736 853.32 22.4023 848.915 22.4057C846.943 22.408 845.266 21.2777 846.2 19.0686C847.519 15.9543 850.79 13.7783 852.805 11.3143ZM863.299 7.97715C864.145 8.9383 865.997 8.89715 867.098 9.6023C865.611 9.98287 863.739 9.98058 862.393 10.5017C862.711 9.6743 862.995 8.81601 863.299 7.97715Z" fill="#F3F9F5"/>
</g>
<g clip-path="url(#clip6_1625_2164)">
<path d="M1005.22 0L988.339 12.48C987.521 9.39131 985.69 6.66666 983.139 4.74286C980.532 2.7729 977.356 1.70214 974.088 1.69143H962.053V30.3314H974.133C977.428 30.3912 980.647 29.345 983.276 27.36C985.818 25.4194 987.608 22.6563 988.339 19.5429L1005.22 32L1022.05 19.5429V30.3314H1041.05V24.5143H1028.48V1.65714H1021.62V12.4571L1005.62 24.9257L1002.19 22.0229L1009.96 16.2057L1018.17 9.97714L1013.41 6.24L997.482 18.2857L994.053 15.3829L1010.05 3.74857L1005.22 0ZM968.522 7.48571H973.699C974.766 7.48345 975.821 7.70539 976.796 8.13714C977.777 8.57449 978.665 9.19513 979.413 9.96572C980.187 10.7654 980.804 11.7037 981.231 12.7314C982.088 14.9052 982.088 17.3233 981.231 19.4971C980.839 20.5257 980.257 21.4716 979.516 22.2857C978.789 23.1036 977.902 23.7647 976.911 24.2286C975.879 24.7067 974.756 24.9525 973.619 24.9486H968.522V7.48571ZM1062.62 24.5143V30.3314H1043.63V1.66857H1050.54V24.5257H1062.62V24.5143Z" fill="#F3F9F5"/>
</g>
<g clip-path="url(#clip7_1625_2164)">
<path d="M1194.96 7.39728C1193.27 7.38193 1191.61 7.87125 1190.19 8.80302C1188.77 9.73478 1187.66 11.0669 1187.01 12.63C1186.35 14.193 1186.17 15.9164 1186.49 17.581C1186.82 19.2456 1187.63 20.7761 1188.83 21.978C1190.02 23.1799 1191.55 23.9988 1193.21 24.3306C1194.88 24.6624 1196.6 24.4922 1198.17 23.8415C1199.73 23.1908 1201.07 22.089 1202.01 20.6763C1202.95 19.2636 1203.44 17.6039 1203.44 15.908C1203.44 14.7929 1203.22 13.6882 1202.8 12.657C1202.37 11.6258 1201.75 10.6883 1200.96 9.89803C1200.18 9.10773 1199.24 8.48013 1198.21 8.05105C1197.18 7.62197 1196.08 7.39982 1194.96 7.39728ZM1195.03 21.0009C1194.38 21.0093 1193.73 20.8869 1193.12 20.6409C1192.51 20.3948 1191.96 20.03 1191.5 19.5679C1190.92 18.9944 1190.49 18.2867 1190.25 17.5075C1190.01 16.7283 1189.96 15.9016 1190.12 15.1009C1190.27 14.3001 1190.62 13.55 1191.14 12.917C1191.65 12.2839 1192.31 11.7876 1193.06 11.4719C1193.82 11.1563 1194.64 11.0311 1195.45 11.1074C1196.26 11.1837 1197.04 11.4592 1197.72 11.9095C1198.4 12.3597 1198.96 12.9708 1199.35 13.6886C1199.73 14.4063 1199.94 15.2086 1199.94 16.0242C1199.91 17.3267 1199.38 18.5685 1198.47 19.4942C1197.55 20.4199 1196.31 20.9591 1195.01 21.0009H1195.03ZM1213.77 11.4251C1213.19 11.4327 1212.62 11.5538 1212.1 11.7815C1211.57 12.0092 1211.09 12.3389 1210.69 12.7519C1210.29 13.1649 1209.97 13.6528 1209.76 14.1878C1209.55 14.7228 1209.45 15.2942 1209.46 15.8693V23.9927H1205.77L1205.72 7.87171H1209.41V10.3988C1209.94 9.62653 1210.64 8.99169 1211.47 8.54709C1212.29 8.10248 1213.21 7.86098 1214.14 7.84266H1215.22V11.4251H1213.77ZM1176.97 8.01694L1179.73 19.0741L1182.64 7.9879H1186.33L1181.77 24.1573H1178.18L1175.28 12.8871L1172.48 24.2057H1168.89L1164.05 8.0944H1167.64L1170.87 19.1225L1173.46 8.03631L1176.97 8.01694ZM1226.03 15.1625C1227.33 14.4057 1228.4 13.3227 1229.15 12.0213C1229.89 10.7199 1230.29 9.24577 1230.28 7.74584H1226.6C1226.61 9.04705 1226.11 10.3014 1225.2 11.2342C1224.3 12.167 1223.06 12.7021 1221.75 12.7225H1221.22L1221.18 0H1217.49L1217.64 23.954H1221.33V16.3631H1221.75C1221.95 16.3417 1222.15 16.3802 1222.32 16.4736C1222.49 16.567 1222.63 16.7108 1222.72 16.8859L1227.92 23.925H1232.24L1226.03 15.1625Z" fill="#F3F9F5"/>
<path d="M1155.53 7.59092C1151.52 7.59092 1148.48 10.2536 1147.34 14.475C1145.51 11.6323 1144.08 8.5541 1143.09 5.32526H1138.87V16.4986C1138.87 17.5618 1138.45 18.5813 1137.7 19.3331C1136.95 20.0848 1135.93 20.5071 1134.87 20.5071C1133.8 20.5071 1132.78 20.0848 1132.03 19.3331C1131.28 18.5813 1130.86 17.5618 1130.86 16.4986V5.32526L1126.63 5.40272L1126.67 16.5761C1126.67 17.6644 1126.88 18.7427 1127.3 19.7493C1127.71 20.7559 1128.32 21.6708 1129.09 22.4417C1129.85 23.2126 1130.77 23.8243 1131.77 24.2416C1132.78 24.659 1133.86 24.8738 1134.94 24.8738C1136.03 24.8587 1137.11 24.6288 1138.1 24.1972C1139.1 23.7657 1140.01 23.1411 1140.76 22.3592C1141.52 21.5774 1142.11 20.6537 1142.51 19.6413C1142.91 18.6289 1143.11 17.5478 1143.09 16.4599V14.5234C1143.97 16.2889 1145 17.9764 1146.17 19.5679L1143.62 32L1147.93 31.9516L1149.79 22.9761C1151.52 24.0805 1153.54 24.6589 1155.6 24.6415C1157.81 24.5575 1159.91 23.6153 1161.44 22.014C1162.98 20.4126 1163.83 18.2774 1163.82 16.0594C1163.81 13.8413 1162.94 11.7139 1161.39 10.1266C1159.84 8.53921 1157.74 7.6161 1155.52 7.55219L1155.53 7.59092ZM1155.59 20.3328C1153.83 20.2867 1152.15 19.6253 1150.83 18.4641L1151.25 16.7794V16.6826C1151.56 14.8914 1152.49 11.8415 1155.65 11.8415C1156.77 11.8388 1157.84 12.2782 1158.64 13.0636C1159.43 13.849 1159.88 14.9168 1159.89 16.0339C1159.85 17.1604 1159.38 18.2278 1158.58 19.0242C1157.78 19.8205 1156.71 20.2877 1155.59 20.3328Z" fill="#F3F9F5"/>
</g>
<g clip-path="url(#clip8_1625_2164)">
<path fill-rule="evenodd" clip-rule="evenodd" d="M1311.29 9.37931C1311.29 8.21965 1310.82 7.10794 1310 6.28819C1309.18 5.46844 1308.07 5.00763 1306.91 5.0069H1301.14V13.8097H1306.91C1307.49 13.8108 1308.07 13.6966 1308.6 13.4737C1309.14 13.2508 1309.62 12.9236 1310.03 12.5112C1310.44 12.0989 1310.76 11.6096 1310.97 11.0719C1311.19 10.5342 1311.3 9.95879 1311.29 9.37931ZM1306.91 0C1309.4 3.71001e-08 1311.79 0.989047 1313.55 2.74956C1315.31 4.51008 1316.3 6.89784 1316.3 9.38759C1316.3 11.8773 1315.31 14.2651 1313.55 16.0256C1311.79 17.7861 1309.4 18.7752 1306.91 18.7752H1301.14V31.6662H1296.15V0H1306.91ZM1332.68 18.4414C1332.36 17.1949 1331.63 16.0916 1330.61 15.3058C1329.59 14.52 1328.34 14.0964 1327.05 14.1021C1324.29 14.1021 1322.03 15.8621 1321.41 18.4414H1332.68ZM1327.1 9.68C1333.55 9.68 1338.06 14.8193 1338.06 22.1738V22.571H1321.41C1322.29 25.3297 1324.69 27.1614 1327.5 27.1614C1330.44 27.1614 1332.65 25.3131 1333.47 24.5186L1333.78 24.2207L1336.77 27.8786L1336.51 28.1324C1333.99 30.6152 1330.77 31.9945 1327.46 31.9945C1321.12 31.9945 1316.16 26.9655 1316.16 20.5435C1316.15 19.1087 1316.43 17.6862 1316.97 16.3592C1317.52 15.0322 1318.32 13.8274 1319.34 12.8156C1320.36 11.8038 1321.57 11.0052 1322.9 10.4668C1324.23 9.92835 1325.65 9.66086 1327.09 9.68H1327.1ZM1346.22 3.37931V10H1353.04V14.4772H1346.2V23.8566C1346.2 24.2271 1346.27 24.5948 1346.41 24.9381C1346.55 25.2815 1346.75 25.5935 1347.01 25.8559C1347.28 26.1183 1347.59 26.3258 1347.93 26.4661C1348.27 26.6064 1348.64 26.6768 1349.01 26.6731H1352.94V31.68H1348.93C1344.24 31.68 1341.2 28.5931 1341.2 23.8152V3.40138L1346.22 3.37931ZM1372.22 20.7972C1372.21 19.5858 1371.84 18.4048 1371.16 17.4031C1370.48 16.4014 1369.51 15.6237 1368.39 15.168C1367.27 14.7123 1366.04 14.599 1364.85 14.8423C1363.66 15.0857 1362.57 15.6748 1361.72 16.5354C1360.87 17.3961 1360.29 18.4898 1360.06 19.6789C1359.83 20.8679 1359.95 22.0991 1360.42 23.2172C1360.88 24.3354 1361.67 25.2906 1362.68 25.9626C1363.69 26.6345 1364.87 26.9931 1366.08 26.9931C1366.89 26.9891 1367.69 26.8256 1368.44 26.512C1369.18 26.1983 1369.86 25.7407 1370.43 25.1652C1371 24.5897 1371.45 23.9077 1371.75 23.1582C1372.06 22.4087 1372.21 21.6064 1372.21 20.7972H1372.22ZM1372.77 12.1379V10.0138H1377.14V31.6662H1372.79V29.5421C1370.9 31.1384 1368.5 32.0097 1366.03 32C1364.55 32.0233 1363.08 31.7518 1361.7 31.2014C1360.33 30.651 1359.08 29.8327 1358.02 28.7941C1356.97 27.7555 1356.13 26.5173 1355.56 25.1518C1354.98 23.7862 1354.69 22.3205 1354.69 20.84C1354.69 19.3595 1354.98 17.8938 1355.56 16.5282C1356.13 15.1627 1356.97 13.9245 1358.02 12.8859C1359.08 11.8473 1360.33 11.029 1361.7 10.4786C1363.08 9.92819 1364.55 9.65673 1366.03 9.68C1368.48 9.68977 1370.86 10.5593 1372.75 12.1379H1372.77ZM1381.67 31.6662V1.66897H1386.64V31.6662H1381.67Z" fill="#F3F9F5"/>
</g>
</g>
<defs>
<clipPath id="clip0_1625_2164">
<rect width="1440" height="32" fill="white"/>
</clipPath>
<clipPath id="clip1_1625_2164">
<rect width="105.527" height="32" fill="white"/>
</clipPath>
<clipPath id="clip2_1625_2164">
<rect width="90.4828" height="32" fill="white" transform="translate(169.527)"/>
</clipPath>
<clipPath id="clip3_1625_2164">
<rect width="107.53" height="32" fill="white" transform="translate(324.01)"/>
</clipPath>
<clipPath id="clip4_1625_2164">
<rect width="236.8" height="32" fill="white" transform="translate(495.541)"/>
</clipPath>
<clipPath id="clip5_1625_2164">
<rect width="101.714" height="32" fill="white" transform="translate(796.341)"/>
</clipPath>
<clipPath id="clip6_1625_2164">
<rect width="100.571" height="32" fill="white" transform="translate(962.055)"/>
</clipPath>
<clipPath id="clip7_1625_2164">
<rect width="105.527" height="32" fill="white" transform="translate(1126.63)"/>
</clipPath>
<clipPath id="clip8_1625_2164">
<rect width="90.4828" height="32" fill="white" transform="translate(1296.15)"/>
</clipPath>
</defs>
</svg>
