<svg width="1545" height="5082" viewBox="0 0 1545 5082" fill="none" xmlns="http://www.w3.org/2000/svg">
<path opacity="0.45" d="M951.051 0.823509C1058.3 -0.677089 1273.72 19.5918 1142.24 175.335C977.887 370.015 1560.16 522.219 1466.24 370.015C1372.33 217.811 658.578 391.253 1236.15 649.645C1698.21 856.359 790.058 910.397 278.224 911.577C99.0876 919.248 -175.855 996.191 157.468 1242.6C574.122 1550.61 1327.98 1681.6 1282.06 1869.24C1236.15 2056.88 -411.553 2872.98 157.468 2872.98C1409.39 2872.98 268.76 3344.9 760.564 3505.01C910.547 3553.84 1544.87 3471.18 1511.84 3781.03C1450.31 4358.34 -64.1331 4084.24 103.197 4401.06C312.359 4797.08 1511.84 4945.09 1543.86 5081.1" stroke="#01E37F" stroke-opacity="0.8" stroke-width="1.5" stroke-linecap="square"/>
</svg>
