<svg width="26" height="25" viewBox="0 0 26 25" fill="none" xmlns="http://www.w3.org/2000/svg">
<path d="M24.6509 12.1715C24.7899 12.1715 24.9028 12.2842 24.8999 12.4231C24.8553 14.5624 24.2429 16.6531 23.1233 18.4801C21.9598 20.3787 20.294 21.9186 18.31 22.9295C16.326 23.9404 14.1011 24.3829 11.8812 24.2082C9.66141 24.0335 7.53312 23.2484 5.73168 21.9395C3.93024 20.6307 2.52582 18.8492 1.6737 16.792C0.821577 14.7348 0.554943 12.482 0.903276 10.2828C1.25161 8.08347 2.20134 6.02334 3.64747 4.33014C5.0391 2.70075 6.83825 1.47224 8.85908 0.768765C8.99028 0.723093 9.1323 0.795649 9.17523 0.927771L12.3203 10.6072C12.6234 11.54 13.4926 12.1715 14.4733 12.1715H24.6509Z" fill="#F3F9F5" stroke="#F3F9F5" stroke-width="1.5"/>
</svg>
