<svg width="24" height="24" viewBox="0 0 24 24" fill="none" xmlns="http://www.w3.org/2000/svg">
<path d="M6.33606 12.7304L12.7009 6.3656C13.0074 6.05918 13.3712 5.81612 13.7717 5.65031C14.1721 5.48451 14.6013 5.3992 15.0347 5.39925C15.4681 5.39931 15.8972 5.48473 16.2976 5.65064C16.698 5.81655 17.0618 6.0597 17.3683 6.3662C17.6747 6.67271 17.9177 7.03657 18.0835 7.437C18.2494 7.83744 18.3347 8.26662 18.3346 8.70003C18.3346 9.13343 18.2491 9.56259 18.0832 9.96298C17.9173 10.3634 17.6742 10.7272 17.3677 11.0336L9.73086 18.6704C9.44936 18.9519 9.06756 19.11 8.66946 19.11C8.27136 19.11 7.88956 18.9519 7.60806 18.6704C7.32656 18.3889 7.16841 18.0071 7.16841 17.609C7.16841 17.2109 7.32656 16.8291 7.60806 16.5476L14.3965 9.7592C14.5554 9.58859 14.642 9.36294 14.6379 9.12978C14.6338 8.89661 14.5393 8.67415 14.3744 8.50926C14.2095 8.34436 13.987 8.24991 13.7539 8.24579C13.5207 8.24168 13.2951 8.32823 13.1245 8.4872L6.33606 15.2756C5.71704 15.8946 5.36929 16.7342 5.36929 17.6096C5.36929 18.485 5.71704 19.3246 6.33606 19.9436C6.95508 20.5626 7.79464 20.9104 8.67006 20.9104C9.54548 20.9104 10.385 20.5626 11.0041 19.9436L18.6397 12.3056C19.5777 11.3455 20.0994 10.0542 20.0916 8.7119C20.0838 7.36961 19.5471 6.08452 18.5979 5.13536C17.6487 4.1862 16.3637 3.6495 15.0214 3.64169C13.6791 3.63387 12.3878 4.15556 11.4277 5.0936L5.06406 11.4572C4.90508 11.6278 4.81854 11.8535 4.82265 12.0866C4.82676 12.3198 4.92122 12.5423 5.08611 12.7071C5.25101 12.872 5.47347 12.9665 5.70663 12.9706C5.93979 12.9747 6.16545 12.8882 6.33606 12.7292" fill="#F3F9F5"/>
</svg>
