<svg width="32" height="32" viewBox="0 0 32 32" fill="none" xmlns="http://www.w3.org/2000/svg">
<rect width="32" height="32" rx="6" fill="#4B4C4C"/>
<path d="M11.4291 9.37547C9.73719 9.71359 8.46281 10.988 8.12469 12.6798C7.78656 10.988 6.51219 9.71359 4.82031 9.37547C6.51219 9.03734 7.78656 7.76297 8.12469 6.07109C8.46281 7.76297 9.73719 9.03734 11.4291 9.37547ZM19.8791 9.12984C18.4416 8.17297 18.0559 8.17297 16.6203 9.12984C17.5772 7.69234 17.5772 7.30672 16.6203 5.87109C18.0578 6.82797 18.4434 6.82797 19.8791 5.87109C18.9222 7.30672 18.9222 7.69422 19.8791 9.12984ZM12.3791 19.1298C10.9416 18.173 10.5559 18.173 9.12031 19.1298C10.0772 17.6923 10.0772 17.3067 9.12031 15.8711C10.5578 16.828 10.9434 16.828 12.3791 15.8711C11.4222 17.3067 11.4222 17.6942 12.3791 19.1298ZM23.0753 14.9511C21.7978 14.0992 21.4503 14.0992 20.1747 14.9511C21.0266 13.6736 21.0266 13.3261 20.1747 12.0505C21.4522 12.9023 21.7997 12.9023 23.0753 12.0505C22.2234 13.328 22.2234 13.673 23.0753 14.9511Z" fill="#F3F9F5"/>
<path d="M13.6012 13.1585L13.1593 13.6005C12.6711 14.0886 12.6711 14.8801 13.1593 15.3683L22.882 25.091C23.3701 25.5791 24.1616 25.5791 24.6498 25.091L25.0917 24.649C25.5799 24.1609 25.5799 23.3694 25.0917 22.8813L15.369 13.1585C14.8808 12.6704 14.0894 12.6704 13.6012 13.1585Z" fill="#F3F9F5"/>
<path d="M13.1593 13.6005L13.6012 13.1585C13.8356 12.9241 14.1536 12.7924 14.4851 12.7924C14.8166 12.7924 15.1346 12.9241 15.369 13.1585L16.6948 14.4844L14.4851 16.6941L13.1593 15.3683C12.9249 15.1338 12.7932 14.8159 12.7932 14.4844C12.7932 14.1529 12.9249 13.8349 13.1593 13.6005Z" fill="#F3F9F5"/>
</svg>
