<svg width="19" height="19" viewBox="0 0 19 19" fill="none" xmlns="http://www.w3.org/2000/svg">
<path d="M12.0016 0.378161C12.6353 -0.390777 13.8829 0.0953594 13.8293 1.09034L13.4983 7.23535C13.4807 7.56278 13.6196 7.87911 13.8727 8.08765L18.6216 12.0015C19.3906 12.6352 18.9044 13.8828 17.9095 13.8292L11.7644 13.4982C11.437 13.4806 11.1207 13.6195 10.9122 13.8726L6.99832 18.6215C6.3646 19.3905 5.11698 18.9043 5.17058 17.9093L5.50159 11.7643C5.51922 11.4369 5.38029 11.1206 5.12725 10.912L0.378287 6.99819C-0.390652 6.36448 0.095485 5.11686 1.09047 5.17045L7.23548 5.50146C7.5629 5.5191 7.87923 5.38016 8.08777 5.12712L12.0016 0.378161Z" fill="#01E37F"/>
</svg>
