<svg width="22" height="22" viewBox="0 0 22 22" fill="none" xmlns="http://www.w3.org/2000/svg">
<path d="M2.02531 1.35895C1.68508 0.45381 2.69767 -0.360507 3.50874 0.165986L11.1809 5.14623C11.4478 5.31949 11.7812 5.35566 12.079 5.2437L20.641 2.0253C21.5461 1.68506 22.3604 2.69765 21.8339 3.50872L16.8537 11.1809C16.6804 11.4478 16.6443 11.7811 16.7562 12.079L19.9746 20.6409C20.3149 21.5461 19.3023 22.3604 18.4912 21.8339L10.819 16.8537C10.5521 16.6804 10.2188 16.6442 9.92092 16.7562L1.35897 19.9746C0.45383 20.3148 -0.360488 19.3022 0.166004 18.4912L5.14625 10.819C5.3195 10.5521 5.35568 10.2188 5.24372 9.92091L2.02531 1.35895Z" fill="#01E37F"/>
</svg>
