<svg width="46" height="46" viewBox="0 0 46 46" fill="none" xmlns="http://www.w3.org/2000/svg">
<path d="M10.2397 1.18301C10.0719 0.226966 11.2219 -0.388532 11.9244 0.281316L25.4885 13.2156C25.7196 13.436 26.0417 13.5335 26.3563 13.4783L44.8168 10.2394C45.7728 10.0716 46.3883 11.2216 45.7185 11.9241L32.7842 25.4881C32.5638 25.7193 32.4663 26.0414 32.5215 26.356L35.7604 44.8165C35.9282 45.7725 34.7782 46.388 34.0757 45.7181L20.5116 32.7839C20.2805 32.5635 19.9584 32.466 19.6437 32.5212L1.18332 35.7601C0.227282 35.9278 -0.388217 34.7778 0.281631 34.0754L13.2159 20.5113C13.4363 20.2802 13.5338 19.958 13.4786 19.6434L10.2397 1.18301Z" fill="#01E37F"/>
</svg>
