<svg width="123" height="123" viewBox="0 0 123 123" fill="none" xmlns="http://www.w3.org/2000/svg">
<g opacity="0.2">
<path fill-rule="evenodd" clip-rule="evenodd" d="M60.8229 4.65599C64.8427 7.77277 65.5737 13.5568 62.4557 17.5749L56.8532 24.7947L74.2721 38.3006C80.4267 43.0726 61.6061 52.5397 62.8865 59.6429C64.3566 67.798 85.1229 73.7261 79.6419 80.7892L66.1302 98.2009L73.3531 103.801C77.3327 106.887 78.089 112.587 75.0782 116.599L74.9858 116.72C71.8677 120.738 66.0813 121.469 62.0615 118.352C58.0819 115.267 57.3257 109.567 60.3364 105.554L60.4288 105.433L66.0314 98.2135L48.6123 84.7075C42.0655 79.6314 60.4482 67.6872 59.43 60.0794C58.392 52.3239 38.0658 48.8899 43.2425 42.2189L56.754 24.8071L49.5314 19.2069C45.5115 16.0902 44.7806 10.3062 47.8986 6.28803C51.0167 2.26989 56.8031 1.5392 60.8229 4.65599Z" stroke="black" stroke-opacity="0.5" stroke-width="0.150439"/>
<path fill-rule="evenodd" clip-rule="evenodd" d="M53.701 5.18919C58.08 7.77779 59.5304 13.4246 56.9407 17.8017L52.2877 25.6664L71.2627 36.8836C77.9671 40.8469 60.4819 52.5972 62.6429 59.484C65.1239 67.3906 86.4698 70.6704 81.9176 78.3644L70.6957 97.3316L78.5638 101.983C82.8989 104.546 84.3638 110.106 81.8799 114.464L81.8035 114.595C79.2138 118.972 73.5646 120.422 69.1857 117.834C64.8506 115.271 63.3856 109.711 65.8695 105.353L65.946 105.221L70.5992 97.3565L51.624 86.1393C44.4923 81.9234 61.2325 67.7704 59.2684 60.3501C57.2662 52.7858 36.6696 51.9254 40.9691 44.6584L52.1908 25.6911L44.323 21.04C39.9441 18.4514 38.4936 12.8046 41.0833 8.42753C43.673 4.05044 49.3221 2.60059 53.701 5.18919Z" stroke="black" stroke-opacity="0.5" stroke-width="0.150439"/>
<path fill-rule="evenodd" clip-rule="evenodd" d="M46.7024 6.61022C51.3714 8.62982 53.5184 14.0504 51.498 18.7174L47.8678 27.103L68.0997 35.8545C75.2481 38.9467 59.3741 52.7949 62.3816 59.3566C65.8344 66.8901 87.4232 67.4698 83.8717 75.6734L75.1164 95.8969L83.5056 99.5258C88.1279 101.525 90.2784 106.858 88.3606 111.493L88.3012 111.633C86.2808 116.3 80.8579 118.446 76.189 116.427C71.5667 114.427 69.4162 109.094 71.334 104.46L71.3934 104.319L75.0238 95.9337L54.7917 87.1822C47.1877 83.893 62.0213 67.7544 59.1422 60.6386C56.2074 53.3849 35.6654 55.1116 39.0198 47.3633L47.7748 27.1397L39.3858 23.511C34.7168 21.4914 32.5698 16.0708 34.5902 11.4038C36.6107 6.73678 42.0335 4.59063 46.7024 6.61022Z" stroke="black" stroke-opacity="0.5" stroke-width="0.150439"/>
<path fill-rule="evenodd" clip-rule="evenodd" d="M39.9371 8.89672C44.8225 10.3155 47.6322 15.4243 46.2129 20.3076L43.6627 29.082L64.8324 35.2298C72.3122 37.4019 58.2997 53.1297 62.1062 59.2629C66.4764 66.3044 87.9676 64.1748 85.4727 72.7588L79.3222 93.9196L88.1003 96.4688C92.9368 97.8734 95.7391 102.895 94.4175 107.733L94.3761 107.88C92.9568 112.763 87.8458 115.572 82.9605 114.153C78.124 112.748 75.3217 107.727 76.6433 102.889L76.6847 102.742L79.2349 93.9678L58.0652 87.8199C50.1087 85.5093 62.8017 67.6396 59.0532 60.9406C55.2319 54.1118 35.0684 58.3984 37.4248 50.2909L43.575 29.13L34.7972 26.5808C29.9119 25.1621 27.1021 20.0533 28.5214 15.1699C29.9407 10.2866 35.0517 7.47798 39.9371 8.89672Z" stroke="black" stroke-opacity="0.5" stroke-width="0.150439"/>
<path fill-rule="evenodd" clip-rule="evenodd" d="M33.512 12.013C38.5367 12.8085 41.9649 17.5251 41.169 22.5477L39.7392 31.5723L61.5127 35.0195C69.2059 36.2375 57.276 53.5967 61.8214 59.2047C67.0401 65.6432 88.0948 60.8379 86.6959 69.6667L83.2472 91.4313L92.2757 92.8607C97.2502 93.6482 100.66 98.2788 99.9554 103.245L99.9328 103.395C99.1369 108.418 94.4184 111.845 89.3937 111.049C84.4192 110.262 81.0095 105.631 81.714 100.665L81.7366 100.515L83.1666 91.49L61.3929 88.0428C53.2094 86.7472 63.5618 67.4281 59.0029 61.2517C54.3555 54.9554 34.8885 61.7343 36.2097 53.3955L39.6582 31.6309L30.63 30.2016C25.6052 29.4061 22.177 24.6895 22.9729 19.6669C23.7687 14.6443 28.4872 11.2175 33.512 12.013Z" stroke="black" stroke-opacity="0.5" stroke-width="0.150439"/>
<path fill-rule="evenodd" clip-rule="evenodd" d="M27.5279 15.9094C32.6127 16.0691 36.6053 20.319 36.4455 25.4017L36.1584 34.5343L58.1925 35.2265C65.9778 35.4711 56.3185 54.188 61.5313 59.1823C67.5161 64.9162 87.8023 57.5111 87.5214 66.4455L86.8288 88.4706L95.9653 88.7576C100.999 88.9157 104.963 93.0826 104.887 98.0977L104.883 98.2499C104.723 103.333 100.472 107.324 95.3867 107.164C90.3527 107.006 86.3892 102.839 86.4655 97.8237L86.4691 97.6715L86.7562 88.5389L64.722 87.8467C56.4406 87.5865 64.289 67.1229 58.9916 61.5663C53.5914 55.9018 35.1278 65.0662 35.3931 56.6276L36.0854 34.6026L26.9492 34.3156C21.8643 34.1559 17.8718 29.906 18.0316 24.8233C18.1914 19.7405 22.443 15.7497 27.5279 15.9094Z" stroke="black" stroke-opacity="0.5" stroke-width="0.150439"/>
<path fill-rule="evenodd" clip-rule="evenodd" d="M22.0799 20.525C27.1447 20.0464 31.6386 23.7626 32.1174 28.8253L32.9777 37.9218L54.9249 35.8481C62.6794 35.1154 55.4431 54.8948 61.241 59.1967C67.8975 64.1356 87.0953 54.2474 87.9369 63.1466L90.0113 85.0847L99.1118 84.2248C104.126 83.751 108.581 87.3885 109.134 92.3736L109.149 92.5251C109.628 97.5878 105.91 102.08 100.846 102.558C95.8314 103.032 91.3768 99.3947 90.8237 94.4096L90.8081 94.2581L89.9479 85.1616L68.0006 87.2353C59.7519 88.0147 64.9726 66.7292 59.0202 61.88C52.9524 56.9368 35.7835 68.342 34.9886 59.9368L32.9139 37.9987L23.8137 38.8586C18.7489 39.3371 14.2549 35.621 13.7762 30.5583C13.2974 25.4956 17.0151 21.0036 22.0799 20.525Z" stroke="black" stroke-opacity="0.5" stroke-width="0.150439"/>
<path fill-rule="evenodd" clip-rule="evenodd" d="M17.2533 25.7866C22.2182 24.6773 27.1426 27.8011 28.2524 32.7639L30.2465 41.681L51.7606 36.874C59.3621 35.1756 54.6629 55.7057 60.9545 59.2472C68.1778 63.3133 85.9844 51.0979 87.9351 59.8215L92.744 81.3267L101.665 79.3335C106.58 78.2353 111.456 81.286 112.63 86.1625L112.664 86.3108C113.774 91.2736 110.649 96.196 105.684 97.3053C100.769 98.4035 95.8929 95.3528 94.7191 90.4763L94.6846 90.328L92.6907 81.4109L71.1765 86.2179C63.0905 88.0246 65.6011 66.2528 59.0877 62.1876C52.4479 58.0435 36.8444 71.5098 35.0019 63.2704L30.1928 41.7652L21.2722 43.7584C16.3073 44.8677 11.3829 41.7439 10.2731 36.7811C9.16333 31.8183 12.2885 26.8959 17.2533 25.7866Z" stroke="black" stroke-opacity="0.5" stroke-width="0.150439"/>
<path fill-rule="evenodd" clip-rule="evenodd" d="M13.1248 31.6113C17.9114 29.8887 23.1888 32.371 24.912 37.1556L28.0085 45.7525L48.7502 38.2881C56.0788 35.6508 53.9908 56.6077 60.6769 59.3331C68.3531 62.4622 84.4876 48.1123 87.5168 56.5227L94.9841 77.2559L103.585 74.1608C108.324 72.4554 113.543 74.8712 115.319 79.5622L115.372 79.7051C117.095 84.4897 114.612 89.7648 109.825 91.4874C105.087 93.1927 99.8669 90.7769 98.0909 86.0859L98.0381 85.9431L94.9418 77.3461L74.2 84.8105C66.4043 87.616 66.1653 65.7014 59.1935 62.4842C52.0864 59.2047 38.2945 74.5195 35.4334 66.576L27.9658 45.8429L19.3654 48.9379C14.5788 50.6605 9.30148 48.1782 7.5782 43.3936C5.85491 38.609 8.33822 33.3338 13.1248 31.6113Z" stroke="black" stroke-opacity="0.5" stroke-width="0.150439"/>
<path fill-rule="evenodd" clip-rule="evenodd" d="M9.75902 37.9077C14.2919 35.599 19.8388 37.4006 22.1485 41.9316L26.2984 50.0728L45.9406 40.0687C52.8808 36.534 53.437 57.5873 60.412 59.4536C68.42 61.5963 82.628 45.3382 86.6879 53.3028L96.696 72.937L104.841 68.7888C109.328 66.5032 114.81 68.246 117.16 72.6775L117.23 72.8126C119.54 77.3436 117.737 82.8883 113.205 85.1969C108.717 87.4825 103.236 85.7396 100.885 81.3081L100.815 81.173L96.6653 73.0318L77.023 83.0359C69.6406 86.7959 66.6556 65.084 59.3354 62.7657C51.8732 60.4024 40.1102 77.3243 36.2758 69.8018L26.2674 50.1678L18.1229 54.3159C13.59 56.6245 8.04306 54.823 5.73345 50.292C3.42383 45.761 5.22614 40.2163 9.75902 37.9077Z" stroke="black" stroke-opacity="0.5" stroke-width="0.150439"/>
<path fill-rule="evenodd" clip-rule="evenodd" d="M7.20933 44.5756C11.417 41.7173 17.1461 42.8097 20.0056 47.0156L25.1436 54.5727L43.3766 42.1867C49.8188 37.8104 53.0104 58.628 60.1644 59.6057C68.3779 60.7283 80.4354 42.8184 85.4619 50.2116L97.8529 68.4371L105.413 63.3012C109.579 60.4715 115.236 61.5139 118.123 65.616L118.21 65.7412C121.069 69.9471 119.976 75.6738 115.769 78.5322C111.603 81.3619 105.946 80.3195 103.059 76.2174L102.972 76.0922L97.8344 68.535L79.6013 80.921C72.7485 85.5762 67.0648 64.4096 59.5116 63.0266C51.8119 61.6168 42.2635 79.879 37.516 72.8962L25.1247 54.6708L17.5646 59.8066C13.3569 62.6649 7.62783 61.5725 4.7683 57.3666C1.90878 53.1606 3.00166 47.4339 7.20933 44.5756Z" stroke="black" stroke-opacity="0.5" stroke-width="0.150439"/>
<path fill-rule="evenodd" clip-rule="evenodd" d="M5.51564 51.5107C9.33173 48.1477 15.1526 48.5138 18.517 52.3283L24.562 59.1821L41.0982 44.6096C46.9409 39.4607 52.7175 59.7143 59.9377 59.788C68.2272 59.8727 77.944 40.5935 83.8578 47.2987L98.4364 63.8281L105.293 57.7855C109.071 54.4562 114.814 54.7817 118.193 58.4898L118.294 58.6032C121.659 62.4177 121.293 68.2361 117.477 71.5991C113.699 74.9284 107.956 74.6029 104.577 70.8948L104.475 70.7814L98.4303 63.9276L81.894 78.5002C75.6789 83.9772 67.386 63.6895 59.719 63.2637C51.9033 62.8296 44.7199 82.1441 39.1343 75.8111L24.5556 59.2818L17.699 65.3242C13.8829 68.6872 8.062 68.3211 4.69766 64.5066C1.33333 60.6921 1.69954 54.8736 5.51564 51.5107Z" stroke="black" stroke-opacity="0.5" stroke-width="0.150439"/>
<path fill-rule="evenodd" clip-rule="evenodd" d="M4.70507 58.6031C8.06941 54.7886 13.8903 54.4225 17.7064 57.7854L24.5631 63.8279L39.1418 47.2986C44.2928 41.4583 52.5634 60.8285 59.7359 59.9971C67.9707 59.0426 75.1934 38.6981 81.9014 44.6095L98.4375 59.1822L104.483 52.3282C107.813 48.5519 113.552 48.1553 117.369 51.4108L117.484 51.5106C121.3 54.8735 121.666 60.692 118.302 64.5065C114.971 68.2828 109.233 68.6794 105.416 65.4239L105.301 65.3241L98.4439 59.2816L83.8652 75.811C78.3859 82.0234 67.6146 62.9347 59.9547 63.4727C52.1461 64.0213 47.4412 84.0833 41.1056 78.5001L24.5693 63.9276L18.5244 70.7813C15.16 74.5958 9.33914 74.9619 5.52305 71.599C1.70695 68.236 1.34074 62.4176 4.70507 58.6031Z" stroke="black" stroke-opacity="0.5" stroke-width="0.150439"/>
<path fill-rule="evenodd" clip-rule="evenodd" d="M4.79006 65.7413C7.64958 61.5354 13.3787 60.443 17.5863 63.3013L25.1466 68.4371L37.5378 50.2117C41.9159 43.7722 52.55 61.9534 59.5617 60.23C67.6119 58.2514 72.2268 37.1624 79.623 42.1868L97.856 54.573L102.994 47.0157C105.825 42.8519 111.468 41.7395 115.664 44.4911L115.79 44.5757C119.998 47.434 121.091 53.1607 118.231 57.3667C115.4 61.5305 109.757 62.6428 105.562 59.8912L105.435 59.8067L97.8748 54.6708L85.4836 72.8963C80.8265 79.7462 67.7467 62.1574 60.2146 63.6509C52.5364 65.1733 50.384 85.6666 43.3984 80.9212L25.1652 68.5353L20.0274 76.0923C17.1678 80.2982 11.4387 81.3906 7.23108 78.5323C3.02341 75.6739 1.93053 69.9472 4.79006 65.7413Z" stroke="black" stroke-opacity="0.5" stroke-width="0.150439"/>
<path fill-rule="evenodd" clip-rule="evenodd" d="M5.76931 72.8124C8.07892 68.2814 13.6259 66.4798 18.1587 68.7885L26.3034 72.9366L36.3116 53.3025C39.8478 46.3653 52.6777 63.071 59.4181 60.4827C67.1566 57.5112 69.0909 36.0103 77.0588 40.0685L96.7011 50.0727L100.851 41.9313C103.138 37.4457 108.597 35.6351 113.104 37.8394L113.24 37.9074C117.773 40.2161 119.576 45.7607 117.266 50.2917C114.98 54.7774 109.52 56.588 105.013 54.3836L104.877 54.3156L96.732 50.1674L86.7237 69.8016C82.9622 77.1809 67.7801 61.3694 60.4947 63.7948C53.0679 66.2672 53.5021 86.8685 45.9765 83.0356L26.3341 73.0317L22.1843 81.1728C19.8747 85.7038 14.3278 87.5053 9.79488 85.1967C5.262 82.888 3.45969 77.3434 5.76931 72.8124Z" stroke="black" stroke-opacity="0.5" stroke-width="0.150439"/>
<path fill-rule="evenodd" clip-rule="evenodd" d="M7.62759 79.7053C9.35087 74.9207 14.6282 72.4384 19.4148 74.1609L28.0153 77.256L35.4828 56.5229C38.1213 49.1973 52.9447 64.1639 59.3074 60.7516C66.6123 56.834 65.8355 35.2604 74.2494 38.2883L94.9911 45.7529L98.0875 37.1558C99.7936 32.419 104.983 29.9388 109.731 31.561L109.875 31.6115C114.661 33.334 117.145 38.6091 115.421 43.3938C113.715 48.1305 108.526 50.6108 103.778 48.9885L103.634 48.9381L95.0337 45.8429L87.5661 66.5761C84.7595 74.3685 67.7146 60.5838 60.7908 63.9027C53.7326 67.286 56.7465 87.6706 48.7996 84.8107L28.0578 77.3465L24.9614 85.9432C23.2381 90.7279 17.9608 93.2101 13.1742 91.4876C8.38762 89.765 5.9043 84.4899 7.62759 79.7053Z" stroke="black" stroke-opacity="0.5" stroke-width="0.150439"/>
<path fill-rule="evenodd" clip-rule="evenodd" d="M10.3355 86.3108C11.4453 81.3481 16.3697 78.2242 21.3346 79.3335L30.2554 81.3267L35.0643 59.8215C36.7635 52.2232 53.3466 65.2147 59.2312 61.0322C65.9874 56.2303 62.5116 34.9241 71.2389 36.874L92.753 41.6812L94.747 32.764C95.8457 27.8508 100.683 24.74 105.597 25.7546L105.746 25.7866C110.711 26.896 113.836 31.8184 112.726 36.7811C111.628 41.6943 106.79 44.8051 101.876 43.7905L101.727 43.7585L92.8065 41.7652L87.9975 63.2704C86.1901 71.353 67.5512 59.8124 61.098 63.9726C54.5197 68.2134 60.0658 88.0597 51.823 86.2179L30.3088 81.4111L28.3148 90.328C27.205 95.2908 22.2806 98.4147 17.3157 97.3053C12.3509 96.196 9.22572 91.2736 10.3355 86.3108Z" stroke="black" stroke-opacity="0.5" stroke-width="0.150439"/>
<path fill-rule="evenodd" clip-rule="evenodd" d="M13.8502 92.5251C14.329 87.4624 18.8229 83.7462 23.8877 84.2248L32.9881 85.0846L35.0627 63.1466C35.7957 55.3953 53.877 66.2068 59.1908 61.32C65.2916 55.7096 59.1718 35.0068 68.0747 35.8481L90.0219 37.922L90.8821 28.8253C91.3561 23.8132 95.7654 20.1209 100.768 20.5119L100.92 20.525C105.984 21.0035 109.702 25.4956 109.223 30.5583C108.749 35.5703 104.34 39.2627 99.3376 38.8717L99.1859 38.8586L90.0855 37.9986L88.0109 59.9368C87.2312 68.1821 67.2922 59.0675 61.4116 64.0033C55.4169 69.0349 63.4076 88.0298 54.9989 87.2353L33.0517 85.1617L32.1914 94.2581C31.7127 99.3208 27.2187 103.037 22.1539 102.558C17.0892 102.08 13.3714 97.5878 13.8502 92.5251Z" stroke="black" stroke-opacity="0.5" stroke-width="0.150439"/>
<path fill-rule="evenodd" clip-rule="evenodd" d="M18.1165 98.25C17.9567 93.1672 21.9493 88.9174 27.0341 88.7576L36.1706 88.4706L35.4781 66.4456C35.2334 58.6636 54.5278 67.1246 59.187 61.6107C64.5362 55.2801 55.8688 35.5074 64.807 35.2266L86.8412 34.5346L86.554 25.4018C86.3958 20.3699 90.3073 16.1543 95.3194 15.9155L95.4716 15.9095C100.556 15.7497 104.808 19.7406 104.968 24.8234C105.126 29.8553 101.215 34.0709 96.2025 34.3097L96.0503 34.3157L86.9139 34.6026L87.6064 56.6277C87.8666 64.9057 66.942 58.361 61.7267 63.9946C56.4101 69.7375 66.7195 87.5816 58.2775 87.8468L36.2433 88.5391L36.5304 97.6715C36.6902 102.754 32.6977 107.004 27.6128 107.164C22.528 107.324 18.2763 103.333 18.1165 98.25Z" stroke="black" stroke-opacity="0.5" stroke-width="0.150439"/>
<path fill-rule="evenodd" clip-rule="evenodd" d="M23.0668 103.395C22.2709 98.3726 25.6991 93.656 30.7239 92.8605L39.7522 91.4311L36.3036 69.6666C35.0852 61.9766 55.2882 67.9536 59.2193 61.8995C63.7326 54.9487 52.6543 36.4177 61.4868 35.0193L83.2605 31.5723L81.8305 22.5476C81.0426 17.5751 84.3947 12.9027 89.3373 12.0379L89.4876 12.0129C94.5123 11.2173 99.2308 14.6441 100.027 19.6668C100.815 24.6392 97.4625 29.3116 92.5198 30.1764L92.3696 30.2015L83.3412 31.6307L86.7898 53.3954C88.086 61.5755 66.5058 57.7038 62.0379 63.9464C57.4834 70.3101 69.9489 86.7219 61.6066 88.0426L39.833 91.49L41.2629 100.514C42.0588 105.537 38.6306 110.254 33.6059 111.049C28.5811 111.845 23.8626 108.418 23.0668 103.395Z" stroke="black" stroke-opacity="0.5" stroke-width="0.150439"/>
<path fill-rule="evenodd" clip-rule="evenodd" d="M28.6233 107.88C27.204 102.996 30.0138 97.8876 34.8991 96.4688L43.6771 93.9196L37.5267 72.7587C35.3536 65.282 56.1468 68.6809 59.2878 62.182C62.894 54.7206 49.5795 37.7236 58.1671 35.2297L79.3368 29.0821L76.7866 20.3076C75.3814 15.4731 78.1212 10.4176 82.9164 8.94038L83.0624 8.89672C87.9477 7.47798 93.0587 10.2866 94.478 15.1699C95.8832 20.0044 93.1434 25.0599 88.3482 26.5372L88.2022 26.5808L79.4242 29.1299L85.5746 50.2909C87.8862 58.2441 65.9907 57.1066 62.3408 63.8597C58.6201 70.7438 73.0451 85.4645 64.9343 87.8199L43.7646 93.9679L46.3148 102.742C47.7341 107.625 44.9244 112.734 40.039 114.153C35.1536 115.572 30.0426 112.763 28.6233 107.88Z" stroke="black" stroke-opacity="0.5" stroke-width="0.150439"/>
<path fill-rule="evenodd" clip-rule="evenodd" d="M34.6984 111.633C32.6779 106.966 34.825 101.545 39.4939 99.5257L47.883 95.8969L39.1279 75.6734C36.0345 68.5279 57.0899 69.295 59.3912 62.4538C62.0334 54.5995 46.6928 39.4045 54.8999 35.8545L75.1319 27.1031L71.5015 18.7174C69.5013 14.097 71.5856 8.7381 76.1578 6.67177L76.2971 6.61018C80.9661 4.59058 86.3889 6.73673 88.4093 11.4037C90.4096 16.0241 88.3252 21.383 83.7531 23.4493L83.6138 23.5109L75.2246 27.1396L83.9798 47.3632C87.2704 54.9641 65.4049 56.5786 62.6305 63.7358C59.8023 71.0317 75.9593 83.8292 68.2078 87.1822L47.9759 95.9338L51.6061 104.319C53.6266 108.986 51.4795 114.407 46.8106 116.426C42.1416 118.446 36.7188 116.3 34.6984 111.633Z" stroke="black" stroke-opacity="0.5" stroke-width="0.150439"/>
<path fill-rule="evenodd" clip-rule="evenodd" d="M41.1959 114.595C38.6062 110.218 40.0567 104.571 44.4356 101.983L52.3035 97.3316L41.0817 78.3644C37.1167 71.6628 58.1023 69.786 59.5277 62.7104C61.1642 54.587 44.0394 41.4338 51.7366 36.8836L70.7118 25.6665L66.0586 17.8017C63.4948 13.4684 64.8908 7.89059 69.1678 5.26775L69.2983 5.18919C73.6772 2.60059 79.3264 4.05044 81.9161 8.42753C84.4799 12.7608 83.0839 18.3386 78.8069 20.9615L78.6764 21.04L70.8084 25.6911L82.0303 44.6584C86.2479 51.7871 64.7573 56.1282 62.9022 63.5765C61.0112 71.1693 78.6454 81.8416 71.3754 86.1393L52.4003 97.3566L57.0534 105.221C59.643 109.598 58.1926 115.245 53.8137 117.834C49.4348 120.422 43.7856 118.972 41.1959 114.595Z" stroke="black" stroke-opacity="0.5" stroke-width="0.150439"/>
<path fill-rule="evenodd" clip-rule="evenodd" d="M48.0139 116.72C44.8958 112.702 45.6268 106.918 49.6466 103.801L56.8693 98.2012L43.3577 80.7895C38.5838 74.6375 59.1685 70.1464 59.6955 62.948C60.3006 54.6836 41.6615 43.7796 48.7275 38.3009L66.1467 24.795L60.544 17.5752C57.4571 13.5972 58.1427 7.88854 62.0571 4.75055L62.1767 4.65626C66.1966 1.53947 71.983 2.27016 75.101 6.2883C78.1879 10.2663 77.5024 15.9749 73.5879 19.1129L73.4683 19.2072L66.2456 24.8074L79.7572 42.2192C84.8354 48.7633 64.0586 55.7625 63.152 63.3845C62.2279 71.1543 81.0612 79.5332 74.3874 84.7078L56.9684 98.2139L62.5709 105.433C65.689 109.452 64.958 115.236 60.9382 118.352C56.9183 121.469 51.1319 120.739 48.0139 116.72Z" stroke="black" stroke-opacity="0.5" stroke-width="0.150439"/>
<path fill-rule="evenodd" clip-rule="evenodd" d="M55.0444 117.974C51.4471 114.378 51.4471 108.548 55.0444 104.953L61.508 98.4916L45.9198 82.91C40.4121 77.4045 60.2714 70.37 59.8917 63.1623C59.4557 54.8873 39.5964 46.4044 45.9198 40.0836L61.5081 24.502L55.0444 18.041C51.4831 14.4811 51.4475 8.73157 54.9376 5.12792L55.0444 5.01939C58.6417 1.42357 64.4741 1.42357 68.0714 5.01939C71.6328 8.57924 71.6684 14.3288 68.1783 17.9324L68.0714 18.041L61.6078 24.5018L77.196 40.0836C83.0548 45.9399 63.3194 55.4869 63.3756 63.1623C63.433 70.9867 83.1684 76.9401 77.196 82.91L61.6079 98.4918L68.0714 104.953C71.6687 108.548 71.6687 114.378 68.0714 117.974C64.4741 121.57 58.6417 121.57 55.0444 117.974Z" stroke="black" stroke-opacity="0.5" stroke-width="0.150439"/>
<path fill-rule="evenodd" clip-rule="evenodd" d="M62.1768 118.338C58.157 115.221 57.426 109.437 60.5441 105.419L66.1466 98.1989L48.7276 84.693C42.573 79.921 61.3937 70.4539 60.1133 63.3507C58.6432 55.1956 37.8768 49.2675 43.3578 42.2044L56.8695 24.7927L49.6466 19.1924C45.667 16.1068 44.9108 10.407 47.9215 6.39456L48.0139 6.2735C51.132 2.25536 56.9184 1.52468 60.9382 4.64146C64.9178 7.72708 65.6741 13.4268 62.6633 17.4393L62.571 17.5604L56.9684 24.7801L74.3874 38.2861C80.9343 43.3622 62.5515 55.3064 63.5698 62.9142C64.6077 70.6697 84.934 74.1037 79.7572 80.7747L66.2458 98.1866L73.4684 103.787C77.4882 106.903 78.2192 112.687 75.1011 116.706C71.983 120.724 66.1966 121.454 62.1768 118.338Z" stroke="black" stroke-opacity="0.5" stroke-width="0.150439"/>
<path fill-rule="evenodd" clip-rule="evenodd" d="M69.2985 117.805C64.9196 115.216 63.4691 109.569 66.0588 105.192L70.7118 97.3274L51.7368 86.1103C45.0324 82.147 62.5176 70.3967 60.3566 63.5099C57.8756 55.6032 36.5297 52.3235 41.0819 44.6294L52.3038 25.6623L44.4357 21.0111C40.1006 18.4483 38.6357 12.8883 41.1196 8.53024L41.1961 8.39855C43.7857 4.02146 49.4349 2.57161 53.8138 5.16021C58.1489 7.72293 59.6139 13.283 57.13 17.641L57.0535 17.7727L52.4003 25.6374L71.3755 36.8546C78.5072 41.0705 61.767 55.2235 63.7311 62.6438C65.7333 70.208 86.3299 71.0685 82.0304 78.3354L70.8087 97.3027L78.6765 101.954C83.0554 104.542 84.5059 110.189 81.9162 114.566C79.3265 118.943 73.6774 120.393 69.2985 117.805Z" stroke="black" stroke-opacity="0.5" stroke-width="0.150439"/>
<path fill-rule="evenodd" clip-rule="evenodd" d="M76.2971 116.384C71.6281 114.364 69.4811 108.943 71.5015 104.276L75.1317 95.8908L54.8998 87.1393C47.7514 84.0472 63.6254 70.199 60.618 63.6372C57.1651 56.1037 35.5763 55.5241 39.1278 47.3204L47.8831 27.0969L39.4939 23.4681C34.8716 21.4687 32.7211 16.136 34.639 11.5011L34.6983 11.3609C36.7188 6.6939 42.1416 4.54775 46.8105 6.56735C51.4328 8.56675 53.5833 13.8994 51.6655 18.5343L51.6061 18.6745L47.9758 27.0601L68.2078 35.8116C75.8118 39.1008 60.9783 55.2395 63.8573 62.3552C66.7921 69.609 87.3341 67.8823 83.9798 75.6306L75.2247 95.8542L83.6137 99.4829C88.2827 101.502 90.4297 106.923 88.4093 111.59C86.3888 116.257 80.966 118.403 76.2971 116.384Z" stroke="black" stroke-opacity="0.5" stroke-width="0.150439"/>
<path fill-rule="evenodd" clip-rule="evenodd" d="M83.0624 114.097C78.1771 112.678 75.3673 107.569 76.7866 102.686L79.3368 93.9117L58.1671 87.7639C50.6873 85.5917 64.6998 69.8639 60.8933 63.7307C56.5231 56.6892 35.0319 58.8188 37.5268 50.2349L43.6773 29.074L34.8992 26.5248C30.0627 25.1202 27.2604 20.099 28.5821 15.2604L28.6234 15.1139C30.0427 10.2305 35.1537 7.42191 40.039 8.84065C44.8756 10.2452 47.6778 15.2664 46.3562 20.105L46.3149 20.2516L43.7646 29.0258L64.9344 35.1737C72.8909 37.4843 60.1978 55.354 63.9463 62.053C67.7676 68.8818 87.9311 64.5952 85.5747 72.7027L79.4245 93.8636L88.2023 96.4128C93.0876 97.8315 95.8974 102.94 94.4781 107.824C93.0588 112.707 87.9478 115.516 83.0624 114.097Z" stroke="black" stroke-opacity="0.5" stroke-width="0.150439"/>
<path fill-rule="evenodd" clip-rule="evenodd" d="M89.4876 110.981C84.4628 110.185 81.0346 105.469 81.8305 100.446L83.2604 91.4215L61.4868 87.9744C53.7936 86.7564 65.7235 69.3972 61.1781 63.7892C55.9594 57.3507 34.9047 62.156 36.3036 53.3271L39.7523 31.5626L30.7238 30.1332C25.7493 29.3456 22.3396 24.7151 23.0441 19.7491L23.0667 19.5985C23.8626 14.5759 28.5811 11.1491 33.6058 11.9446C38.5803 12.7322 41.99 17.3627 41.2855 22.3287L41.2629 22.4793L39.8329 31.5039L61.6066 34.9511C69.7901 36.2467 59.4377 55.5657 63.9967 61.7422C68.644 68.0385 88.1111 61.2596 86.7898 69.5983L83.3413 91.3629L92.3695 92.7923C97.3943 93.5878 100.822 98.3043 100.027 103.327C99.2308 108.35 94.5123 111.776 89.4876 110.981Z" stroke="black" stroke-opacity="0.5" stroke-width="0.150439"/>
<path fill-rule="evenodd" clip-rule="evenodd" d="M95.4716 107.084C90.3868 106.924 86.3942 102.675 86.554 97.5919L86.8411 88.4593L64.807 87.7671C57.0217 87.5226 66.681 68.8056 61.4682 63.8113C55.4834 58.0774 35.1972 65.4825 35.4781 56.5481L36.1707 34.5231L27.0342 34.2361C22.0002 34.0779 18.0367 29.911 18.113 24.8959L18.1166 24.7437C18.2764 19.661 22.528 15.6701 27.6128 15.8298C32.6469 15.988 36.6103 20.1548 36.534 25.1699L36.5305 25.3222L36.2433 34.4547L58.2775 35.1469C66.5589 35.4071 58.7105 55.8707 64.0079 61.4274C69.4081 67.0918 87.8717 57.9275 87.6064 66.366L86.9141 88.391L96.0503 88.678C101.135 88.8377 105.128 93.0876 104.968 98.1703C104.808 103.253 100.557 107.244 95.4716 107.084Z" stroke="black" stroke-opacity="0.5" stroke-width="0.150439"/>
<path fill-rule="evenodd" clip-rule="evenodd" d="M100.92 102.469C95.8548 102.947 91.3609 99.2313 90.8821 94.1686L90.0218 85.072L68.0746 87.1458C60.3201 87.8785 67.5564 68.099 61.7585 63.7972C55.102 58.8582 35.9042 68.7465 35.0626 59.8473L32.9882 37.9091L23.8877 38.769C18.8735 39.2428 14.4189 35.6053 13.8657 30.6202L13.8502 30.4688C13.3714 25.4061 17.0891 20.914 22.1539 20.4354C27.1681 19.9617 31.6227 23.5991 32.1758 28.5843L32.1914 28.7357L33.0516 37.8323L54.9989 35.7585C63.2476 34.9791 58.0269 56.2647 63.9793 61.1138C70.0471 66.057 87.216 54.6518 88.0109 63.0571L90.0857 84.9951L99.1858 84.1353C104.251 83.6567 108.745 87.3729 109.223 92.4356C109.702 97.4982 105.984 101.99 100.92 102.469Z" stroke="black" stroke-opacity="0.5" stroke-width="0.150439"/>
<path fill-rule="evenodd" clip-rule="evenodd" d="M105.746 97.2073C100.781 98.3166 95.8569 95.1927 94.7471 90.2299L92.753 81.3129L71.2389 86.1199C63.6374 87.8183 68.3366 67.2882 62.045 63.7466C54.8217 59.6806 37.0152 71.896 35.0644 63.1724L30.2555 41.6671L21.3346 43.6604C16.4194 44.7586 11.5438 41.7079 10.37 36.8314L10.3356 36.6831C9.22578 31.7203 12.3509 26.7979 17.3158 25.6886C22.231 24.5903 27.1066 27.641 28.2804 32.5176L28.3149 32.6659L30.3088 41.5829L51.823 36.776C59.909 34.9693 57.3984 56.741 63.9118 60.8062C70.5516 64.9503 86.1551 51.4841 87.9976 59.7235L92.8067 81.2286L101.727 79.2354C106.692 78.1261 111.617 81.25 112.726 86.2128C113.836 91.1756 110.711 96.098 105.746 97.2073Z" stroke="black" stroke-opacity="0.5" stroke-width="0.150439"/>
<path fill-rule="evenodd" clip-rule="evenodd" d="M109.875 91.3823C105.088 93.1049 99.8108 90.6226 98.0875 85.838L94.991 77.2411L74.2493 84.7055C66.9207 87.3428 69.0087 66.3859 62.3226 63.6605C54.6465 60.5314 38.5119 74.8813 35.4828 66.4709L28.0154 45.7377L19.4147 48.8328C14.676 50.5382 9.45631 48.1224 7.68029 43.4314L7.62754 43.2885C5.90425 38.5039 8.38757 33.2288 13.1742 31.5062C17.9129 29.8009 23.1326 32.2167 24.9086 36.9077L24.9614 37.0506L28.0577 45.6475L48.7995 38.1831C56.5952 35.3777 56.8342 57.2923 63.806 60.5094C70.9131 63.7889 84.705 48.4741 87.5661 56.4177L95.0337 77.1507L103.634 74.0557C108.421 72.3331 113.698 74.8154 115.421 79.6C117.145 84.3847 114.661 89.6598 109.875 91.3823Z" stroke="black" stroke-opacity="0.5" stroke-width="0.150439"/>
<path fill-rule="evenodd" clip-rule="evenodd" d="M113.24 85.0862C108.708 87.3948 103.161 85.5933 100.851 81.0623L96.7011 72.9211L77.0589 82.9251C70.1187 86.4598 69.5625 65.4066 62.5875 63.5403C54.5795 61.3976 40.3715 77.6557 36.3116 69.6911L26.3035 50.0569L18.1588 54.2051C13.6712 56.4907 8.18979 54.7478 5.83959 50.3163L5.76934 50.1812C3.45972 45.6502 5.26203 40.1056 9.79491 37.7969C14.2825 35.5114 19.7639 37.2542 22.1141 41.6857L22.1843 41.8208L26.3342 49.9621L45.9765 39.958C53.359 36.198 56.3439 57.9098 63.6641 60.2282C71.1263 62.5915 82.8893 45.6695 86.7238 53.192L96.7321 72.8261L104.877 68.678C109.41 66.3693 114.956 68.1709 117.266 72.7019C119.576 77.2329 117.773 82.7775 113.24 85.0862Z" stroke="black" stroke-opacity="0.5" stroke-width="0.150439"/>
<path fill-rule="evenodd" clip-rule="evenodd" d="M115.79 78.418C111.583 81.2763 105.853 80.1839 102.994 75.978L97.8559 68.4209L79.6229 80.8069C73.1807 85.1832 69.9891 64.3656 62.8351 63.3879C54.6216 62.2653 42.5641 80.1752 37.5376 72.782L25.1466 54.5565L17.5862 59.6924C13.4206 62.5221 7.76387 61.4798 4.87655 57.3776L4.78992 57.2524C1.93039 53.0465 3.02328 47.3198 7.23094 44.4614C11.3965 41.6317 17.0533 42.6741 19.9406 46.7762L20.0272 46.9014L25.1651 54.4586L43.3982 42.0726C50.251 37.4174 55.9347 58.5841 63.4879 59.967C71.1876 61.3768 80.736 43.1146 85.4835 50.0974L97.8748 68.3228L105.435 63.1871C109.643 60.3287 115.372 61.4211 118.231 65.6271C121.091 69.833 119.998 75.5597 115.79 78.418Z" stroke="black" stroke-opacity="0.5" stroke-width="0.150439"/>
<path fill-rule="evenodd" clip-rule="evenodd" d="M117.484 71.4832C113.668 74.8461 107.847 74.48 104.483 70.6655L98.4375 63.8117L81.9013 78.3843C76.0586 83.5332 70.282 63.2796 63.0618 63.2058C54.7723 63.1211 45.0555 82.4003 39.1417 75.6952L24.5631 59.1657L17.7063 65.2083C13.9284 68.5376 8.18556 68.2121 4.80667 64.5041L4.70501 64.3907C1.34068 60.5762 1.70689 54.7577 5.52299 51.3948C9.30092 48.0655 15.0437 48.391 18.4226 52.099L18.5243 52.2124L24.5692 59.0663L41.1055 44.4937C47.3206 39.0167 55.6135 59.3044 63.2805 59.7302C71.0962 60.1642 78.2796 40.8498 83.8652 47.1828L98.4439 63.712L105.301 57.6696C109.117 54.3067 114.938 54.6728 118.302 58.4873C121.666 62.3018 121.3 68.1202 117.484 71.4832Z" stroke="black" stroke-opacity="0.5" stroke-width="0.150439"/>
<path fill-rule="evenodd" clip-rule="evenodd" d="M118.295 64.3905C114.93 68.205 109.109 68.5711 105.293 65.2082L98.4366 59.1657L83.858 75.6951C78.707 81.5353 70.4364 62.1651 63.2638 62.9965C55.0291 63.951 47.8063 84.2955 41.0984 78.3841L24.5622 63.8114L18.5171 70.6654C15.1864 74.4418 9.44808 74.8383 5.63089 71.5828L5.51582 71.483C1.69973 68.1201 1.33351 62.3016 4.69785 58.4871C8.02854 54.7108 13.7669 54.3142 17.5841 57.5697L17.6992 57.6695L24.5558 63.712L39.1345 47.1826C44.6138 40.9702 55.3851 60.059 63.0451 59.5209C70.8536 58.9723 75.5586 38.9103 81.8941 44.4935L98.4305 59.066L104.475 52.2123C107.84 48.3978 113.661 48.0317 117.477 51.3946C121.293 54.7576 121.659 60.576 118.295 64.3905Z" stroke="black" stroke-opacity="0.5" stroke-width="0.150439"/>
<path fill-rule="evenodd" clip-rule="evenodd" d="M118.209 57.2525C115.35 61.4584 109.621 62.5509 105.413 59.6925L97.8529 54.5568L85.4617 72.7822C81.0836 79.2217 70.4495 61.0404 63.4378 62.7638C55.3876 64.7424 50.7727 85.8314 43.3765 80.807L25.1435 68.4209L20.0055 75.9781C17.1745 80.142 11.5311 81.2543 7.33586 78.5027L7.20919 78.4181C3.00152 75.5598 1.90864 69.8331 4.76817 65.6272C7.5991 61.4633 13.2425 60.351 17.4378 63.1026L17.5644 63.1872L25.1247 68.3231L37.5159 50.0976C42.173 43.2476 55.2529 60.8365 62.7849 59.343C70.4631 57.8205 72.6155 37.3272 79.6012 42.0727L97.8343 54.4586L102.972 46.9016C105.832 42.6957 111.561 41.6032 115.768 44.4616C119.976 47.3199 121.069 53.0466 118.209 57.2525Z" stroke="black" stroke-opacity="0.5" stroke-width="0.150439"/>
<path fill-rule="evenodd" clip-rule="evenodd" d="M117.23 50.1812C114.921 54.7122 109.374 56.5138 104.841 54.2051L96.6961 50.057L86.6879 69.6911C83.1517 76.6283 70.3218 59.9227 63.5814 62.5109C55.8429 65.4825 53.9086 86.9833 45.9407 82.9251L26.2984 72.9209L22.1485 81.0623C19.862 85.548 14.4025 87.3585 9.89533 85.1542L9.75905 85.0862C5.22617 82.7775 3.42386 77.2329 5.73348 72.7019C8.02 68.2162 13.4794 66.4056 17.9866 68.61L18.1229 68.678L26.2675 72.8262L36.2758 53.192C40.0373 45.8127 55.2194 61.6242 62.5048 59.1988C69.9316 56.7264 69.4974 36.1251 77.023 39.958L96.6654 49.9619L100.815 41.8208C103.125 37.2898 108.672 35.4883 113.205 37.7969C117.738 40.1056 119.54 45.6502 117.23 50.1812Z" stroke="black" stroke-opacity="0.5" stroke-width="0.150439"/>
<path fill-rule="evenodd" clip-rule="evenodd" d="M115.372 43.2886C113.649 48.0732 108.371 50.5555 103.585 48.8329L94.9842 45.7379L87.5167 66.471C84.8782 73.7965 70.0548 58.8299 63.6922 62.2422C56.3872 66.1598 57.1641 87.7335 48.7501 84.7055L28.0084 77.241L24.912 85.8381C23.2059 90.5748 18.0166 93.0551 13.2685 91.4328L13.1248 91.3824C8.33818 89.6598 5.85486 84.3847 7.57815 79.6001C9.2842 74.8633 14.4735 72.3831 19.2216 74.0054L19.3654 74.0558L27.9658 77.1509L35.4334 56.4177C38.24 48.6253 55.2849 62.4101 62.2087 59.0911C69.2669 55.7078 66.2531 35.3233 74.1999 38.1832L94.9418 45.6474L98.0381 37.0506C99.7614 32.266 105.039 29.7837 109.825 31.5063C114.612 33.2289 117.095 38.504 115.372 43.2886Z" stroke="black" stroke-opacity="0.5" stroke-width="0.150439"/>
<path fill-rule="evenodd" clip-rule="evenodd" d="M112.664 36.683C111.554 41.6458 106.63 44.7696 101.665 43.6603L92.7441 41.6672L87.9352 63.1723C86.236 70.7707 69.6529 57.7792 63.7683 61.9617C57.0121 66.7636 60.4879 88.0698 51.7606 86.1198L30.2465 81.3127L28.2525 90.2299C27.1538 95.143 22.3163 98.2539 17.4023 97.2392L17.2534 97.2072C12.2885 96.0979 9.16339 91.1755 10.2732 86.2127C11.3718 81.2996 16.2093 78.1887 21.1233 79.2034L21.2722 79.2354L30.193 81.2287L35.002 59.7234C36.8094 51.6408 55.4483 63.1815 61.9015 59.0213C68.4798 54.7804 62.9337 34.9342 71.1765 36.7759L92.6907 41.5827L94.6847 32.6658C95.7945 27.703 100.719 24.5792 105.684 25.6885C110.649 26.7978 113.774 31.7202 112.664 36.683Z" stroke="black" stroke-opacity="0.5" stroke-width="0.150439"/>
<path fill-rule="evenodd" clip-rule="evenodd" d="M109.149 30.4688C108.671 35.5315 104.177 39.2476 99.1118 38.7691L90.0115 37.9092L87.9368 59.8473C87.2038 67.5986 69.1225 56.7871 63.8087 61.6738C57.7079 67.2843 63.8277 87.987 54.9248 87.1458L32.9776 85.0719L32.1174 94.1686C31.6434 99.1807 27.2341 102.873 22.2316 102.482L22.0799 102.469C17.0151 101.99 13.2974 97.4982 13.7761 92.4356C14.2501 87.4235 18.6594 83.7312 23.6619 84.1222L23.8136 84.1353L32.914 84.9952L34.9886 63.0571C35.7683 54.8118 55.7073 63.9264 61.5879 58.9905C67.5826 53.9589 59.5919 34.964 68.0006 35.7585L89.9478 37.8321L90.8081 28.7357C91.2868 23.6731 95.7808 19.9569 100.846 20.4355C105.91 20.914 109.628 25.4061 109.149 30.4688Z" stroke="black" stroke-opacity="0.5" stroke-width="0.150439"/>
<path fill-rule="evenodd" clip-rule="evenodd" d="M104.883 24.7439C105.043 29.8266 101.05 34.0765 95.9656 34.2362L86.8292 34.5233L87.5216 56.5482C87.7663 64.3302 68.472 55.8692 63.8128 61.3832C58.4636 67.7137 67.131 87.4865 58.1928 87.7673L36.1586 88.4593L36.4457 97.592C36.6039 102.624 32.6924 106.84 27.6803 107.078L27.5281 107.084C22.4433 107.244 18.1916 103.253 18.0318 98.1705C17.8736 93.1386 21.7852 88.923 26.7972 88.6842L26.9494 88.6781L36.0858 88.3912L35.3934 66.3661C35.1331 58.0882 56.0577 64.6329 61.2731 58.9992C66.5896 53.2563 56.2802 35.4123 64.7223 35.1471L86.7564 34.4548L86.4693 25.3223C86.3095 20.2396 90.3021 15.9897 95.3869 15.83C100.472 15.6702 104.723 19.6611 104.883 24.7439Z" stroke="black" stroke-opacity="0.5" stroke-width="0.150439"/>
<path fill-rule="evenodd" clip-rule="evenodd" d="M99.9327 19.5984C100.729 24.621 97.3004 29.3376 92.2756 30.1331L83.2473 31.5625L86.6959 53.327C87.9144 61.017 67.7113 55.04 63.7802 61.0942C59.2669 68.0449 70.3452 86.5759 61.5127 87.9743L39.739 91.4213L41.169 100.446C41.9569 105.418 38.6048 110.091 33.6622 110.956L33.5119 110.981C28.4872 111.776 23.7687 108.349 22.9728 103.327C22.185 98.3544 25.537 93.682 30.4797 92.8172L30.6299 92.7922L39.6583 91.3629L36.2097 69.5982C34.9136 61.4181 56.4938 65.2898 60.9616 59.0472C65.5161 52.6835 53.0506 36.2717 61.3929 34.951L83.1665 31.5037L81.7366 22.4792C80.9407 17.4565 84.3689 12.74 89.3937 11.9445C94.4184 11.149 99.1369 14.5758 99.9327 19.5984Z" stroke="black" stroke-opacity="0.5" stroke-width="0.150439"/>
<path fill-rule="evenodd" clip-rule="evenodd" d="M94.3762 15.1139C95.7955 19.9972 92.9857 25.106 88.1004 26.5248L79.3224 29.074L85.4728 50.2349C87.6459 57.7116 66.8527 54.3127 63.7117 60.8116C60.1055 68.273 73.42 85.27 64.8325 87.7639L43.6627 93.9115L46.213 102.686C47.6181 107.52 44.8783 112.576 40.0831 114.053L39.9371 114.097C35.0518 115.516 29.9408 112.707 28.5215 107.824C27.1163 102.989 29.8561 97.9337 34.6514 96.4564L34.7973 96.4128L43.5753 93.8637L37.4249 72.7027C35.1133 64.7495 57.0088 65.887 60.6587 59.1339C64.3794 52.2498 49.9544 37.5291 58.0652 35.1737L79.2349 29.0257L76.6847 20.2516C75.2654 15.3682 78.0752 10.2594 82.9605 8.84066C87.8459 7.42192 92.9569 10.2305 94.3762 15.1139Z" stroke="black" stroke-opacity="0.5" stroke-width="0.150439"/>
<path fill-rule="evenodd" clip-rule="evenodd" d="M88.3011 11.3613C90.3215 16.0284 88.1746 21.449 83.5057 23.4686L75.1167 27.0973L83.872 47.3211C86.9654 54.4667 65.9103 53.6994 63.609 60.5407C60.967 68.395 76.3076 83.5903 68.1006 87.1403L47.8689 95.8915L51.4993 104.277C53.4996 108.898 51.4153 114.257 46.8432 116.323L46.7039 116.385C42.035 118.404 36.6123 116.258 34.5918 111.591C32.5915 106.97 34.6758 101.612 39.2479 99.5453L39.3872 99.4837L47.7762 95.855L39.0209 75.6311C35.7302 68.0301 57.5955 66.4158 60.3697 59.2586C63.1978 51.9626 47.0408 39.1649 54.7922 35.8119L75.0238 27.0604L71.3935 18.6748C69.3731 14.0077 71.52 8.58712 76.1889 6.56756C80.8578 4.54799 86.2806 6.69423 88.3011 11.3613Z" stroke="black" stroke-opacity="0.5" stroke-width="0.150439"/>
<path fill-rule="evenodd" clip-rule="evenodd" d="M81.8033 8.40088C84.3932 12.7784 82.9433 18.4254 78.5649 21.0137L70.6977 25.6645L81.9207 44.6335C85.886 51.3358 64.9017 53.2109 63.4769 60.2866C61.8412 68.4103 78.9664 81.5657 71.2699 86.1155L52.2966 97.3314L56.9503 105.197C59.5143 109.531 58.1189 115.109 53.8423 117.731L53.7118 117.81C49.3334 120.398 43.6844 118.948 41.0944 114.57C38.5304 110.236 39.9258 104.659 44.2024 102.036L44.3328 101.957L52.2 97.3067L40.977 78.3376C36.759 71.2082 58.2481 66.8687 60.1025 59.4202C61.9928 51.8273 44.3585 41.1529 51.6278 36.8556L70.6009 25.6395L65.9474 17.7741C63.3575 13.3966 64.8074 7.74962 69.1859 5.16128C73.5643 2.57293 79.2133 4.02335 81.8033 8.40088Z" stroke="black" stroke-opacity="0.5" stroke-width="0.150439"/>
<path fill-rule="evenodd" clip-rule="evenodd" d="M74.9856 6.27385C78.1038 10.292 77.3728 16.076 73.353 19.1928L66.1303 24.793L79.642 42.2048C84.416 48.3569 63.8313 52.8479 63.3043 60.0462C62.6993 68.3106 81.3384 79.2148 74.2724 84.6935L56.8534 98.1992L62.456 105.419C65.543 109.397 64.8574 115.106 60.943 118.244L60.8234 118.338C56.8036 121.455 51.0172 120.724 47.8991 116.706C44.8122 112.728 45.4977 107.019 49.4121 103.881L49.5317 103.787L56.7545 98.1869L43.2428 80.775C38.1645 74.2309 58.9413 67.2317 59.8478 59.6097C60.7719 51.8399 41.9386 43.4609 48.6124 38.2863L66.0312 24.7803L60.4287 17.5607C57.3106 13.5425 58.0416 7.75851 62.0614 4.64174C66.0811 1.52497 71.8675 2.25569 74.9856 6.27385Z" stroke="black" stroke-opacity="0.5" stroke-width="0.150439"/>
<path fill-rule="evenodd" clip-rule="evenodd" d="M67.9551 5.01942C71.5524 8.61524 71.5524 14.4452 67.9551 18.041L61.4915 24.502L77.0797 40.0837C82.5874 45.5891 62.7281 52.6237 63.1078 59.8313C63.5438 68.1063 83.4031 76.5893 77.0797 82.91L61.4914 98.4916L67.9551 104.953C71.5164 108.512 71.552 114.262 68.0619 117.866L67.9551 117.974C64.3578 121.57 58.5254 121.57 54.9281 117.974C51.3667 114.414 51.3311 108.665 54.8212 105.061L54.9281 104.953L61.3917 98.4918L45.8035 82.91C39.9447 77.0537 59.6801 67.5067 59.6239 59.8313C59.5665 52.007 39.8311 46.0535 45.8035 40.0837L61.3916 24.5018L54.9281 18.041C51.3308 14.4452 51.3308 8.61524 54.9281 5.01942C58.5254 1.42361 64.3578 1.42361 67.9551 5.01942Z" stroke="black" stroke-opacity="0.5" stroke-width="0.150439"/>
</g>
</svg>
